<?xml version="1.0" encoding="UTF-8" standalone="no"?>
<svg
   width="25.680054"
   zoomAndPan="magnify"
   viewBox="0 0 19.26004 33.652187"
   height="44.869583"
   preserveAspectRatio="xMidYMid"
   version="1.0"
   id="svg2293"
   sodipodi:docname="programs.svg"
   xmlns:inkscape="http://www.inkscape.org/namespaces/inkscape"
   xmlns:sodipodi="http://sodipodi.sourceforge.net/DTD/sodipodi-0.dtd"
   xmlns="http://www.w3.org/2000/svg"
   xmlns:svg="http://www.w3.org/2000/svg">
  <sodipodi:namedview
     id="namedview2293"
     pagecolor="#ffffff"
     bordercolor="#000000"
     borderopacity="0.25"
     inkscape:showpageshadow="2"
     inkscape:pageopacity="0.0"
     inkscape:pagecheckerboard="0"
     inkscape:deskcolor="#d1d1d1"
     inkscape:export-bgcolor="#ffffff00">
    <inkscape:page
       x="0"
       y="0"
       width="19.26004"
       height="33.652187"
       id="page2"
       margin="0"
       bleed="0" />
  </sodipodi:namedview>
  <defs
     id="defs30">
    <clipPath
       id="4495dba6de">
      <path
         d="m 784.62891,155 h 19.98437 v 33.93359 h -19.98437 z m 0,0"
         clip-rule="nonzero"
         id="path14" />
    </clipPath>
  </defs>
  <g
     clip-path="url(#4495dba6de)"
     id="g49"
     inkscape:export-filename="..\..\UndoodWeb\public\balloons-ico.svg"
     inkscape:export-xdpi="97.650002"
     inkscape:export-ydpi="97.650002"
     transform="translate(-784.98682,-155.2814)">
    <path
       fill="#024f7b"
       d="m 802.49219,166.24609 c -0.625,-0.52343 -1.34375,-0.875 -2.09766,-1.05859 0.23047,-0.44141 0.42578,-0.89844 0.58594,-1.35547 0.82422,-2.36328 0.84375,-5.60547 -1.23438,-7.34375 -1.83593,-1.53125 -4.47265,-1.59375 -6.42578,-0.25391 -1.98047,1.35547 -2.89453,3.70704 -2.60156,6.03907 -1.07422,-0.004 -2.15234,0.3164 -3.07813,0.95312 -2.10937,1.44141 -3.00781,4.01563 -2.52734,6.48828 0.27344,1.41407 0.98047,2.76172 1.99219,3.78125 0.49609,0.5 1.08203,0.94922 1.71484,1.25782 0.39844,0.19921 0.82422,0.3789 1.26563,0.46484 -0.1211,0.25 -0.28516,0.49219 -0.44532,0.70703 -0.18359,0.25 -0.28906,0.52344 -0.13281,0.82031 0.20313,0.38282 0.70313,0.53516 1.17188,0.58594 0.0117,0.22266 0.043,0.44141 0.0703,0.62891 0.0898,0.55468 0.28125,1.08984 0.52734,1.59375 0.51563,1.07812 1.3086,1.99218 2.03516,2.92578 1.22266,1.57031 2.64453,4.08984 0.98828,5.88281 -0.14453,0.16016 0.0742,0.375 0.23828,0.23438 1.26563,-1.10157 1.30078,-2.98829 0.67969,-4.4375 -0.75391,-1.76954 -2.23047,-3.07032 -3.12109,-4.75782 -0.2461,-0.47265 -0.42969,-0.96875 -0.53125,-1.49218 -0.0352,-0.19141 -0.0586,-0.38282 -0.0664,-0.57813 0.57031,-0.0625 1.10937,-0.29687 1.24219,-0.92578 0.12109,-0.57422 -0.17188,-1.05469 -0.51563,-1.48828 0.32422,-0.17188 0.62891,-0.39063 0.90235,-0.63672 0.11718,-0.10547 0.23437,-0.21875 0.34375,-0.33594 -0.34766,2.03906 0.49218,4.1211 1.375,5.95313 1.03125,2.14843 2.36718,4.63672 1.66796,7.09375 -0.0625,0.21875 0.25,0.28906 0.32813,0.0937 0.95703,-2.36328 0.008,-4.76953 -1.01953,-6.92969 -0.84375,-1.76953 -1.8125,-3.75391 -1.61719,-5.73828 0.34375,0.67969 0.79297,1.30469 1.32422,1.84375 0.49609,0.5 1.08203,0.94531 1.71484,1.25781 0.39844,0.19531 0.82422,0.37891 1.26563,0.46484 -0.125,0.25 -0.28516,0.48829 -0.44531,0.70313 -0.1836,0.25 -0.29297,0.52344 -0.13282,0.82031 0.14844,0.28516 0.45703,0.44141 0.79688,0.52344 -0.28516,0.55859 -0.46875,1.20312 -0.59766,1.78516 -0.1914,0.8789 -0.19922,1.75781 -0.16015,2.65234 0.0664,1.44531 0.18359,3.47266 -1.39063,4.19531 -0.1875,0.082 -0.0547,0.40625 0.14063,0.33203 1.50781,-0.55859 2.00781,-2.26562 2.02734,-3.72656 0.0156,-0.96875 -0.0469,-1.92969 0.12891,-2.89062 0.0781,-0.4336 0.1914,-0.85938 0.33984,-1.27735 0.125,-0.33984 0.29687,-0.65625 0.44141,-0.98828 0.0195,0 0.0351,0 0.0508,0 0.64453,-0.0234 1.30859,-0.23828 1.45703,-0.94141 0.12109,-0.57812 -0.17188,-1.05859 -0.51563,-1.48828 0.32422,-0.17187 0.625,-0.39062 0.89844,-0.63672 1.01563,-0.91015 1.73047,-2.1875 2.17578,-3.46093 0.82422,-2.36328 0.84375,-5.60157 -1.23828,-7.33985 z m -9.53125,-8.74218 c 1.42187,-1.52735 3.65234,-2.00391 5.51172,-0.99219 2.14062,1.16015 2.53125,3.74609 2.08203,5.94531 -0.1875,0.90625 -0.51953,1.79297 -0.98438,2.59766 -1.21484,-0.0977 -2.45703,0.21484 -3.5039,0.93359 -0.14063,0.0937 -0.27344,0.19531 -0.39844,0.29688 -0.23047,-1.08204 -0.73047,-2.07422 -1.60156,-2.80469 -0.72657,-0.60547 -1.57422,-0.98047 -2.45704,-1.12891 -0.29296,-1.72656 0.1211,-3.51953 1.35157,-4.84765 z m -0.92578,18.71093 c -0.0625,0.45313 -0.6875,0.41797 -1.03125,0.40235 -0.23047,-0.0117 -0.46875,-0.0508 -0.6875,-0.1211 -0.043,-0.0156 -0.17188,-0.0352 -0.1875,-0.082 -0.0117,-0.0352 0.15234,-0.21484 0.16406,-0.23828 0.17969,-0.28125 0.25781,-0.55859 0.28125,-0.86328 0.26562,0.0156 0.54297,-0.0156 0.80469,-0.0742 0.0586,-0.0117 0.11328,-0.0273 0.17187,-0.043 0.23828,0.26953 0.54297,0.62891 0.48438,1.01953 z m 1.5,-3.73437 c 0.008,0.0273 0.0156,0.0586 0.0195,0.0859 -0.11719,0.17187 -0.23828,0.33593 -0.36719,0.49218 -0.41406,0.50391 -0.91016,0.97266 -1.50781,1.2461 -0.39063,0.17968 -0.78907,0.21875 -1.19141,0.23437 -0.32812,-0.12109 -0.66016,-0.23828 -0.97266,-0.39453 -0.47656,-0.23828 -0.93359,-0.53125 -1.33984,-0.87891 -0.83594,-0.72265 -1.51172,-1.64062 -1.90625,-2.67578 -0.78516,-2.07031 -0.52344,-4.4414 1.01172,-6.09765 1.41797,-1.52735 3.65234,-2 5.51172,-0.99219 1.34765,0.73047 2.0039,2.03125 2.1875,3.44141 -1.32031,1.48046 -1.83203,3.53906 -1.44141,5.53906 z m 6.92578,6.49609 c -0.0625,0.45313 -0.6875,0.42188 -1.03125,0.40235 -0.23047,-0.0117 -0.46875,-0.0508 -0.6875,-0.1211 -0.043,-0.0117 -0.17188,-0.0352 -0.1875,-0.0781 -0.0117,-0.0352 0.14843,-0.21875 0.16406,-0.24219 0.17969,-0.27734 0.25781,-0.55469 0.28125,-0.85938 0.26562,0.0156 0.54297,-0.0156 0.80469,-0.0742 0.0547,-0.0156 0.11328,-0.0312 0.17187,-0.0469 0.23438,0.27344 0.54297,0.62891 0.48438,1.01953 z m 2.83593,-6.76562 c -0.26562,1.30859 -0.83593,2.57812 -1.6875,3.61328 -0.41406,0.5039 -0.90625,0.97265 -1.50781,1.24609 -0.39062,0.17578 -0.78515,0.21875 -1.1875,0.23047 -0.32812,-0.12109 -0.66015,-0.23437 -0.97265,-0.39062 -0.47657,-0.23829 -0.9375,-0.53125 -1.33985,-0.88282 -0.83984,-0.72265 -1.51172,-1.63672 -1.90625,-2.67578 -0.78515,-2.0664 -0.52344,-4.4414 1.01172,-6.09375 1.41797,-1.52734 3.64844,-2.0039 5.51172,-0.99219 2.13672,1.16016 2.53125,3.7461 2.08203,5.94532 z m 0,0"
       fill-opacity="1"
       fill-rule="nonzero"
       id="path48" />
  </g>
  <path
     fill="#024f7b"
     d="m 3.7827055,17.437347 c -0.25,-0.23828 -0.57812,-0.59766 -0.88281,-1.07813 -0.30469,-0.48046 -0.57813,-1.08203 -0.73828,-1.75781 -0.15625,-0.67578 -0.17578,-1.33594 -0.11719,-1.90234 0.0625,-0.56641 0.19531,-1.03516 0.31641,-1.35547 0.0508,-0.14453 -0.0274,-0.1875 -0.10547,-0.0508 -0.0899,0.15234 -0.1875,0.34375 -0.28125,0.57031 -0.0937,0.22656 -0.1836,0.48828 -0.2461,0.78516 -0.1289,0.58984 -0.16015,1.3125 0.0117,2.05078 0.17578,0.74219 0.51953,1.375 0.89844,1.84765 0.1875,0.23829 0.38281,0.4336 0.56641,0.59766 0.1875,0.16016 0.35937,0.28906 0.50781,0.38281 0.13281,0.0859 0.17969,0.0156 0.0703,-0.0898 z m 0,0"
     fill-opacity="1"
     fill-rule="nonzero"
     id="path49" />
  <path
     fill="#024f7b"
     d="m 5.6537955,18.749847 c -0.082,-0.17969 -0.21484,-0.49609 -0.39453,-0.82031 -0.18359,-0.32422 -0.3789,-0.60547 -0.49218,-0.76953 -0.0274,-0.0352 -0.10938,-0.0117 -0.11329,0.0312 -0.004,0.10156 0,0.24609 0.0312,0.41015 0.0312,0.16797 0.0937,0.35547 0.19532,0.53906 0.10156,0.17969 0.23047,0.33204 0.35547,0.44532 0.125,0.11328 0.24218,0.19531 0.33203,0.24218 0.0391,0.0234 0.10156,-0.0352 0.0859,-0.0781 z m 0,0"
     fill-opacity="1"
     fill-rule="nonzero"
     id="path50" />
  <path
     fill="#024f7b"
     d="m 6.0248955,18.570157 c 0.0508,-0.11328 0.11328,-0.32422 0.0664,-0.55078 -0.0469,-0.22266 -0.1914,-0.39453 -0.28125,-0.47656 -0.0195,-0.0195 -0.10546,0.004 -0.11328,0.0312 -0.0312,0.11719 -0.0742,0.32422 -0.0312,0.53515 0.0469,0.21094 0.16797,0.38282 0.2461,0.48047 0.0195,0.0195 0.10547,0.008 0.11328,-0.0195 z m 0,0"
     fill-opacity="1"
     fill-rule="nonzero"
     id="path51" />
  <path
     fill="#024f7b"
     d="m 6.4155155,18.554537 c 0.0899,-0.12891 0.23047,-0.36719 0.30469,-0.65235 0.0742,-0.28515 0.0664,-0.5625 0.0547,-0.71875 -0.004,-0.0352 -0.0859,-0.0664 -0.10938,-0.0391 -0.10937,0.11719 -0.28515,0.34375 -0.36328,0.64844 -0.082,0.30078 -0.0391,0.58984 0,0.74219 0.008,0.0352 0.0937,0.0508 0.11328,0.0195 z m 0,0"
     fill-opacity="1"
     fill-rule="nonzero"
     id="path52" />
  <path
     fill="#024f7b"
     d="m 16.821765,19.359217 c 0.0508,-0.0664 0.10547,-0.14062 0.16797,-0.22265 0.0586,-0.082 0.11328,-0.17578 0.17578,-0.27344 0.0274,-0.0508 0.0625,-0.0977 0.0937,-0.15234 0.0274,-0.0547 0.0586,-0.10938 0.0859,-0.16797 0.0312,-0.0586 0.0625,-0.11719 0.0937,-0.17969 0.0273,-0.0625 0.0547,-0.125 0.082,-0.19141 0.23047,-0.51953 0.41016,-1.17187 0.46485,-1.88281 0.0469,-0.70703 -0.043,-1.3789 -0.19532,-1.92578 -0.0156,-0.0703 -0.0351,-0.13672 -0.0547,-0.20312 -0.0234,-0.0625 -0.043,-0.12891 -0.0664,-0.1875 -0.0234,-0.0625 -0.043,-0.1211 -0.0625,-0.17969 -0.0195,-0.0586 -0.0508,-0.11328 -0.0703,-0.16406 -0.0508,-0.10547 -0.0899,-0.20704 -0.13672,-0.29688 -0.0508,-0.0859 -0.0937,-0.16797 -0.13281,-0.24219 -0.0742,-0.1289 -0.15235,-0.0898 -0.10547,0.0469 0.0234,0.0781 0.0508,0.16406 0.082,0.25781 0.0312,0.0937 0.0547,0.19531 0.0859,0.30469 0.0117,0.0547 0.0312,0.10937 0.0391,0.16797 0.0156,0.0586 0.0273,0.11718 0.0391,0.17968 0.0117,0.0586 0.0273,0.1211 0.0391,0.1836 0.0117,0.0664 0.0195,0.13281 0.0312,0.19922 0.082,0.53515 0.11719,1.16406 0.0742,1.83203 -0.0508,0.66406 -0.17578,1.28125 -0.33203,1.80078 -0.0195,0.0625 -0.0391,0.12891 -0.0586,0.19141 -0.0234,0.0625 -0.043,0.12109 -0.0664,0.17968 -0.0195,0.0586 -0.0391,0.11719 -0.0586,0.17188 -0.0195,0.0547 -0.0469,0.10547 -0.0664,0.16015 -0.0469,0.10157 -0.082,0.19922 -0.125,0.28907 -0.043,0.0859 -0.0859,0.16797 -0.12109,0.24218 -0.0625,0.12891 0.008,0.17969 0.0976,0.0625 z m 0,0"
     fill-opacity="1"
     fill-rule="nonzero"
     id="path53" />
  <path
     fill="#024f7b"
     d="m 13.942865,21.402187 c -0.0547,-0.14453 -0.15625,-0.38281 -0.33203,-0.58984 -0.17969,-0.21094 -0.39844,-0.35156 -0.52735,-0.42578 -0.0312,-0.0195 -0.10156,0.0312 -0.0976,0.0664 0.0273,0.14844 0.10156,0.41016 0.29296,0.63672 0.19141,0.22657 0.4375,0.34375 0.58204,0.39453 0.0312,0.0117 0.0898,-0.0508 0.082,-0.082 z m 0,0"
     fill-opacity="1"
     fill-rule="nonzero"
     id="path54" />
  <path
     fill="#024f7b"
     d="m 14.302235,21.316257 c 0.0352,-0.10547 0.0899,-0.28125 0.0703,-0.46094 -0.0234,-0.17578 -0.12109,-0.33203 -0.18359,-0.42578 -0.0156,-0.0195 -0.10156,-0.0234 -0.11719,-0.004 -0.0625,0.0937 -0.15625,0.27734 -0.1289,0.48438 0.0234,0.21093 0.16015,0.36328 0.24609,0.4375 0.0195,0.0156 0.10547,-0.008 0.11328,-0.0312 z m 0,0"
     fill-opacity="1"
     fill-rule="nonzero"
     id="path55" />
  <path
     fill="#024f7b"
     d="m 14.868645,21.417817 c 0.0977,-0.15625 0.25,-0.45313 0.29297,-0.81641 0.043,-0.36328 -0.043,-0.6875 -0.10547,-0.85937 -0.0117,-0.0391 -0.0977,-0.0391 -0.11328,-0.004 -0.0664,0.17188 -0.17188,0.46875 -0.21094,0.8125 -0.0391,0.34375 -0.004,0.66016 0.0234,0.83984 0.004,0.043 0.0898,0.0586 0.11328,0.0273 z m 0,0"
     fill-opacity="1"
     fill-rule="nonzero"
     id="path56" />
  <path
     fill="#024f7b"
     d="m 7.7202055,4.3709364 c 0.12891,-0.30468 0.34766,-0.71875 0.69531,-1.14062 0.34375,-0.41797 0.82032,-0.83985 1.40235,-1.15235 0.5820295,-0.30859 1.1992195,-0.46875 1.7382795,-0.51562 0.54297,-0.0547 1.00781,0 1.33203,0.0625 0.14453,0.0273 0.17578,-0.0547 0.0312,-0.11328 -0.15625,-0.0625 -0.35156,-0.12891 -0.58203,-0.17969 -0.23438,-0.0508 -0.5,-0.0898 -0.79297,-0.0937 -0.58203,-0.0117 -1.27734,0.11328 -1.9296895,0.45703 -0.65234,0.35156 -1.14453,0.85547 -1.46094,1.34766 -0.16015,0.24219 -0.27734,0.48437 -0.36328,0.70703 -0.0859,0.21875 -0.14453,0.41797 -0.17968,0.58594 -0.0312,0.14843 0.0547,0.17187 0.10937,0.0352 z m 0,0"
     fill-opacity="1"
     fill-rule="nonzero"
     id="path57" />
  <path
     fill="#024f7b"
     d="m 14.368645,8.8709364 c 0.14062,-0.21875 0.3125,-0.54297 0.46484,-0.95312 0.15235,-0.41406 0.28125,-0.91406 0.32813,-1.46094 0.043,-0.54687 0,-1.0625 -0.0859,-1.49219 -0.082,-0.43359 -0.19922,-0.78125 -0.30078,-1.01953 -0.043,-0.10937 -0.125,-0.082 -0.11328,0.0312 0.0391,0.25 0.0742,0.60547 0.0937,1.02735 0.0195,0.41796 0.0156,0.90234 -0.0274,1.41796 -0.043,0.51563 -0.11718,0.99219 -0.20312,1.40625 -0.0859,0.41016 -0.1836,0.75391 -0.26172,0.9961 -0.0312,0.10937 0.0469,0.14844 0.10547,0.0508 z m 0,0"
     fill-opacity="1"
     fill-rule="nonzero"
     id="path58" />
  <path
     fill="#024f7b"
     d="m 11.895985,19.921717 c -0.16797,-0.25 -0.46484,-0.6914 -0.79297,-1.18359 -0.33203,-0.49219 -0.63281,-0.92969 -0.79687,-1.17969 -0.0391,-0.0547 -0.1211,-0.0273 -0.10938,0.0391 0.0234,0.15234 0.0703,0.36328 0.15625,0.60546 0.0859,0.24219 0.21094,0.51172 0.39063,0.77735 0.17578,0.26562 0.38281,0.48437 0.57422,0.65625 0.1914,0.16797 0.36718,0.28906 0.5,0.37109 0.0586,0.0352 0.11718,-0.0312 0.0781,-0.0859 z m 0,0"
     fill-opacity="1"
     fill-rule="nonzero"
     id="path59" />
</svg>
