<svg width="118" height="89" viewBox="0 0 118 89" fill="none" xmlns="http://www.w3.org/2000/svg">
<path d="M86.8904 33.5037C86.8904 32.9721 86.4752 32.5568 85.9602 32.5568C85.4287 32.5568 85.0134 32.9721 85.0134 33.5037C85.0134 47.8553 73.3361 59.516 58.9845 59.516C44.6329 59.516 32.9722 47.8553 32.9722 33.5037C32.9722 19.152 44.6495 7.47472 58.9845 7.47472C65.7783 7.47472 72.19 10.066 77.0735 14.7834C78.6017 16.2452 83.2859 21.7599 79.5651 31.6765C76.2264 40.613 71.4425 40.912 71.4093 40.912C68.1868 40.912 65.5457 38.2875 65.5457 35.0484V29.9656C65.5623 29.5669 65.5623 29.1683 65.5457 28.7696V19.0358C65.5457 18.5208 65.1305 18.1056 64.6155 18.1056C64.1006 18.1056 63.6687 18.5208 63.6687 19.0358V22.4243C62.8548 21.245 61.7751 20.3812 60.5127 19.9161C55.7288 18.2052 49.9151 22.6237 47.2906 29.9822C46.0614 33.404 45.7458 36.9587 46.3936 39.9486C47.0913 43.1046 48.7689 45.2972 51.1277 46.1444C51.8253 46.3935 52.5396 46.5098 53.2538 46.5098C57.2902 46.5098 61.5924 42.8056 63.9511 37.0916C64.8481 40.3639 67.8546 42.789 71.4259 42.789C71.6751 42.789 77.4888 42.5897 81.3259 32.3409C85.4453 21.3446 80.0967 15.0824 78.3692 13.438C73.1534 8.38831 66.26 5.59772 58.9845 5.59772C43.603 5.59772 31.0952 18.1222 31.0952 33.5037C31.0952 48.8851 43.603 61.393 58.9845 61.393C74.3826 61.393 86.8904 48.8851 86.8904 33.5037ZM51.7589 44.3836C50.0314 43.7691 48.7856 42.0415 48.2374 39.5499C47.656 36.8922 47.9384 33.7196 49.0513 30.6134C50.9948 25.1651 54.9315 21.4277 58.3699 21.4277C58.8848 21.4277 59.3832 21.5107 59.8815 21.6769C61.609 22.3081 62.8548 24.019 63.4029 26.5106C63.5524 27.175 63.6355 27.8726 63.6687 28.5869V29.9822C63.6023 31.7429 63.2368 33.6033 62.589 35.4471C60.3798 41.6097 55.4298 45.6959 51.7589 44.3836Z" fill="#024F7B"/>
<mask id="mask0_24_8653" style="mask-type:luminance" maskUnits="userSpaceOnUse" x="59" y="0" width="60" height="89">
<path d="M59.1339 0H118.002V89H59.1339V0Z" fill="white"/>
</mask>
<g mask="url(#mask0_24_8653)">
<path d="M116.939 13.4711C115.793 9.05268 112.82 5.56444 108.783 3.88676L102.272 1.19583C100.295 0.365301 98.0859 0.448351 96.0428 1.42838C94.0329 2.37519 92.4382 4.08609 91.5579 6.24548L88.5846 13.3715C87.6876 15.5142 87.6045 17.8563 88.3354 19.9493C89.0829 22.0921 90.5945 23.7199 92.5711 24.5338C95.0295 25.5637 96.5078 28.155 96.3417 31.1283C96.1092 34.8158 95.3617 40.4136 93.0196 46.0613C90.6609 51.7255 87.2391 56.1938 84.7807 58.9512C82.7874 61.177 79.9138 61.9577 77.4554 60.9444C73.3858 59.2501 68.5853 61.5258 66.7249 65.9941L63.7516 73.1201C61.9078 77.5883 63.6852 82.6048 67.7548 84.2824L74.2495 86.99C75.9272 87.6876 77.7046 88.0365 79.4819 88.0365C81.9735 88.0365 84.4983 87.3554 86.7906 86.0099C93.2023 82.2892 102.587 73.6184 110.943 53.5195C119.298 33.4039 118.816 20.6469 116.939 13.4711ZM109.215 52.7886C101.059 72.4224 92.0064 80.8108 85.8604 84.3987C82.422 86.392 78.452 86.7076 74.9804 85.2625L68.469 82.5549C65.3628 81.2759 64.034 77.3558 65.4957 73.8343L68.4524 66.7083C69.5986 63.9676 72.1068 62.2567 74.6316 62.2567C75.3458 62.2567 76.0601 62.3896 76.7245 62.6719C79.947 64.0008 83.6512 63.0374 86.176 60.197C88.7341 57.3399 92.2887 52.6723 94.7471 46.7755C97.1889 40.8787 97.9862 35.0816 98.2021 31.2445C98.4347 27.4573 96.5079 24.1352 93.302 22.8063C91.807 22.1917 90.6775 20.9625 90.1127 19.3347C89.5314 17.6736 89.5978 15.8132 90.3121 14.0857L93.2854 6.95974C93.9996 5.23223 95.2621 3.87015 96.8567 3.10606C98.4015 2.37519 100.079 2.30875 101.557 2.92334L108.069 5.63088C111.557 7.07601 114.115 10.0992 115.128 13.9528C116.922 20.8297 117.354 33.1714 109.215 52.7886Z" fill="#024F7B"/>
</g>
<mask id="mask1_24_8653" style="mask-type:luminance" maskUnits="userSpaceOnUse" x="0" y="12" width="60" height="65">
<path d="M0 12.458H59.134V76.243H0V12.458Z" fill="white"/>
</mask>
<g mask="url(#mask1_24_8653)">
<path d="M55.8119 63.6189C55.2969 63.6189 54.8817 64.0342 54.8817 64.5491V72.4225L42.8722 62.29C42.706 62.1572 42.4901 62.0741 42.2742 62.0741H6.94326C4.15267 62.0741 1.87701 59.7984 1.87701 56.9912V21.3115C1.87701 18.5043 4.15267 16.2286 6.94326 16.2286H34.1017C34.6166 16.2286 35.0319 15.8134 35.0319 15.2984C35.0319 14.7835 34.6166 14.3516 34.1017 14.3516H6.94326C3.12281 14.3516 0 17.4744 0 21.3115V56.9912C0 60.8283 3.12281 63.9511 6.94326 63.9511H41.9253L55.2139 75.1633C55.38 75.3128 55.5959 75.3792 55.8119 75.3792C55.9448 75.3792 56.0942 75.3626 56.2105 75.2962C56.5427 75.1467 56.7587 74.8145 56.7587 74.4491V64.5491C56.7587 64.0342 56.3268 63.6189 55.8119 63.6189Z" fill="#024F7B"/>
</g>
<path d="M26.2114 28.3876C26.7429 28.3876 27.1582 27.9723 27.1582 27.4574C27.1582 26.9424 26.7429 26.5272 26.2114 26.5272H11.8099C11.295 26.5272 10.8797 26.9424 10.8797 27.4574C10.8797 27.9723 11.295 28.3876 11.8099 28.3876H26.2114Z" fill="#024F7B"/>
<path d="M5.68085 41.4933C5.68085 42.0082 6.09611 42.4235 6.62766 42.4235H28.371C28.886 42.4235 29.3178 42.0082 29.3178 41.4933C29.3178 40.9618 28.886 40.5465 28.371 40.5465H6.62766C6.09611 40.5465 5.68085 40.9618 5.68085 41.4933Z" fill="#024F7B"/>
</svg>
