<?xml version="1.0" encoding="UTF-8" standalone="no"?>
<svg
   width="36.057251"
   zoomAndPan="magnify"
   viewBox="0 0 27.042938 20.051056"
   height="26.734741"
   preserveAspectRatio="xMidYMid"
   version="1.0"
   id="svg2585"
   sodipodi:docname="19.svg"
   xmlns:inkscape="http://www.inkscape.org/namespaces/inkscape"
   xmlns:sodipodi="http://sodipodi.sourceforge.net/DTD/sodipodi-0.dtd"
   xmlns="http://www.w3.org/2000/svg"
   xmlns:svg="http://www.w3.org/2000/svg">
  <sodipodi:namedview
     id="namedview2585"
     pagecolor="#ffffff"
     bordercolor="#000000"
     borderopacity="0.25"
     inkscape:showpageshadow="2"
     inkscape:pageopacity="0.0"
     inkscape:pagecheckerboard="0"
     inkscape:deskcolor="#d1d1d1">
    <inkscape:page
       x="0"
       y="0"
       width="27.042938"
       height="20.051056"
       id="page2"
       margin="0"
       bleed="0" />
  </sodipodi:namedview>
  <defs
     id="defs601">
    <clipPath
       id="f46709c4c6">
      <path
         d="m 1124,736 h 13.1563 v 19.84766 H 1124 Z m 0,0"
         clip-rule="nonzero"
         id="path580" />
    </clipPath>
    <clipPath
       id="bce2b446d8">
      <path
         d="M 1110.1133,739 H 1124 v 15 h -13.8867 z m 0,0"
         clip-rule="nonzero"
         id="path581" />
    </clipPath>
  </defs>
  <path
     fill="#024f7b"
     d="m 19.941339,7.541778 c 0,-0.11719 -0.098,-0.21484 -0.2148,-0.21484 -0.1211,0 -0.2149,0.0977 -0.2149,0.21484 0,3.29297 -2.6796,5.97266 -5.9726,5.97266 -3.293,0 -5.9727002,-2.67969 -5.9727002,-5.97266 0,-3.29297 2.6797002,-5.97266 5.9727002,-5.97266 1.5547,0 3.0273,0.59766 4.1484,1.67969 0.3516,0.33203 1.4258,1.60156 0.5742,3.875 -0.7695,2.05078 -1.8671,2.12109 -1.875,2.12109 -0.7421,0 -1.3437,-0.60546 -1.3437,-1.34765 v -1.16406 c 0,-0.0937 0,-0.1836 0,-0.27735 v -2.23047 c 0,-0.12109 -0.098,-0.21484 -0.2148,-0.21484 -0.1211,0 -0.2149,0.0937 -0.2149,0.21484 v 0.77735 c -0.1914,-0.27344 -0.4375,-0.47266 -0.7266,-0.57813 -1.1015,-0.39062 -2.4335,0.625 -3.0351,2.3125 -0.2813,0.78516 -0.3555,1.59766 -0.2031,2.28516 0.1601,0.72265 0.5429,1.23047 1.0859,1.42187 0.1563,0.0586 0.3203,0.0859 0.4883,0.0859 0.9258,0 1.914,-0.85156 2.4531,-2.16406 0.207,0.7539 0.8945,1.30859 1.7149,1.30859 0.059,0 1.3906,-0.0469 2.2734,-2.39844 0.9414,-2.52343 -0.2813,-3.95703 -0.6797,-4.33984 -1.1992,-1.15625 -2.7773,-1.79687 -4.4453,-1.79687 -3.5313,0 -6.4024002,2.87109 -6.4024002,6.40234 0,3.53125 2.8711002,6.40234 6.4024002,6.40234 3.5273,0 6.4023,-2.87109 6.4023,-6.40234 z m -8.0625,2.49609 c -0.3984,-0.14062 -0.6836,-0.53515 -0.8086,-1.10547 -0.1367,-0.61328 -0.07,-1.33984 0.1875,-2.05078 0.4454,-1.25 1.3477,-2.10937 2.1368,-2.10937 0.1171,0 0.2343,0.0195 0.3437,0.0586 0.3984,0.14063 0.6875,0.53516 0.8125,1.10938 0.031,0.15234 0.055,0.3125 0.062,0.47656 v 0.32031 c -0.016,0.40235 -0.1016,0.83203 -0.25,1.25391 -0.5039,1.41015 -1.6445,2.35156 -2.4844,2.04687 z m 0,0"
     fill-opacity="1"
     fill-rule="nonzero"
     id="path1729" />
  <g
     clip-path="url(#f46709c4c6)"
     id="g1730"
     transform="translate(-1110.1133,-736.06369)">
    <path
       fill="#024f7b"
       d="m 1136.9492,739.01172 c -0.2656,-1.01563 -0.9453,-1.81641 -1.8711,-2.19922 l -1.4922,-0.62109 c -0.457,-0.1875 -0.9648,-0.16797 -1.4336,0.0547 -0.457,0.21875 -0.8242,0.61328 -1.0312,1.10547 l -0.6797,1.63672 c -0.2031,0.49219 -0.2226,1.02734 -0.055,1.50781 0.1719,0.49219 0.5156,0.86328 0.9727,1.05469 0.5625,0.23438 0.9023,0.82813 0.8633,1.51172 -0.051,0.84766 -0.2266,2.12891 -0.7657,3.42578 -0.539,1.30078 -1.3242,2.32813 -1.8906,2.96094 -0.4531,0.51172 -1.1133,0.6875 -1.6797,0.45312 -0.9297,-0.38672 -2.0351,0.13282 -2.4609,1.16016 l -0.6797,1.63672 c -0.4258,1.02734 -0.016,2.17578 0.9141,2.5625 l 1.4921,0.62109 c 0.3868,0.16016 0.793,0.23828 1.1993,0.23828 0.5742,0 1.1523,-0.15625 1.6797,-0.46484 1.4687,-0.85547 3.625,-2.84375 5.539,-7.45703 1.918,-4.61328 1.8086,-7.54297 1.3789,-9.1875 z m -1.7734,9.02344 c -1.8711,4.5 -3.9492,6.42968 -5.3594,7.25 -0.7891,0.46093 -1.6992,0.53125 -2.4961,0.19921 l -1.4961,-0.62109 c -0.7109,-0.29297 -1.0156,-1.19141 -0.6836,-2 l 0.6836,-1.63672 c 0.2617,-0.6289 0.836,-1.01953 1.418,-1.01953 0.1601,0 0.3242,0.0273 0.4805,0.0937 0.7343,0.30469 1.5859,0.082 2.164,-0.56641 0.5899,-0.65625 1.4063,-1.72656 1.9688,-3.07812 0.5625,-1.35547 0.7422,-2.6875 0.7968,-3.57031 0.051,-0.86719 -0.3906,-1.625 -1.1289,-1.9336 -0.3398,-0.14062 -0.6015,-0.42578 -0.7304,-0.79687 -0.1328,-0.37891 -0.1172,-0.8086 0.047,-1.20313 l 0.6797,-1.63672 c 0.1641,-0.39453 0.4571,-0.70703 0.8203,-0.88281 0.3555,-0.16797 0.7383,-0.1875 1.0782,-0.043 l 1.4961,0.6211 c 0.7968,0.33203 1.3867,1.02734 1.6172,1.91015 0.414,1.57813 0.5156,4.41016 -1.3555,8.91407 z m 0,0"
       fill-opacity="1"
       fill-rule="nonzero"
       id="path1730" />
  </g>
  <g
     clip-path="url(#bce2b446d8)"
     id="g1731"
     transform="translate(-1110.1133,-736.06369)"
     inkscape:export-filename="..\..\UndoodWeb\public\contact-icon.svg"
     inkscape:export-xdpi="96"
     inkscape:export-ydpi="96">
    <path
       fill="#024f7b"
       d="m 1122.9219,750.51562 c -0.1172,0 -0.2149,0.0977 -0.2149,0.21485 v 1.80859 l -2.7539,-2.32422 c -0.039,-0.0312 -0.09,-0.0508 -0.1406,-0.0508 h -8.1055 c -0.6406,0 -1.164,-0.52344 -1.164,-1.16406 v -8.19141 c 0,-0.64062 0.5234,-1.16406 1.164,-1.16406 h 6.2344 c 0.1172,0 0.2149,-0.0977 0.2149,-0.21484 0,-0.1211 -0.098,-0.21485 -0.2149,-0.21485 h -6.2344 c -0.8789,0 -1.5937,0.71485 -1.5937,1.59375 V 749 c 0,0.87891 0.7148,1.59375 1.5937,1.59375 h 8.0274 l 3.0508,2.57422 c 0.039,0.0312 0.086,0.0508 0.1367,0.0508 0.031,0 0.062,-0.008 0.09,-0.0195 0.078,-0.0352 0.125,-0.11328 0.125,-0.19531 v -2.27344 c 0,-0.11719 -0.094,-0.21485 -0.2148,-0.21485 z m 0,0"
       fill-opacity="1"
       fill-rule="nonzero"
       id="path1731" />
  </g>
  <path
     fill="#024f7b"
     d="m 6.0156388,6.369898 c 0.121,0 0.2148,-0.0937 0.2148,-0.21484 0,-0.11719 -0.094,-0.21484 -0.2148,-0.21484 h -3.3047 c -0.1211,0 -0.2149,0.0977 -0.2149,0.21484 0,0.12109 0.094,0.21484 0.2149,0.21484 z m 0,0"
     fill-opacity="1"
     fill-rule="nonzero"
     id="path1732" />
  <path
     fill="#024f7b"
     d="m 1.3046388,9.373808 c 0,0.12109 0.098,0.21875 0.2149,0.21875 h 4.9921 c 0.1172,0 0.2149,-0.0977 0.2149,-0.21875 0,-0.11719 -0.098,-0.21484 -0.2149,-0.21484 h -4.9921 c -0.1172,0 -0.2149,0.0977 -0.2149,0.21484 z m 0,0"
     fill-opacity="1"
     fill-rule="nonzero"
     id="path1733" />
  <path
     style="fill:#024f7b;stroke-width:0.99975"
     d="m 16.932039,19.777268 c 1.2184,0.45974 1.6288,0.25397 2.5972,0.01 l -0.027,-0.0644"
     id="path2585"
     sodipodi:nodetypes="ccc" />
</svg>
