<?xml version="1.0" encoding="UTF-8" standalone="no"?>
<svg
   width="41.354126"
   zoomAndPan="magnify"
   viewBox="0 0 31.015594 34.046871"
   height="45.395828"
   preserveAspectRatio="xMidYMid"
   version="1.0"
   id="svg2293"
   sodipodi:docname="programs.svg"
   xmlns:inkscape="http://www.inkscape.org/namespaces/inkscape"
   xmlns:sodipodi="http://sodipodi.sourceforge.net/DTD/sodipodi-0.dtd"
   xmlns="http://www.w3.org/2000/svg"
   xmlns:svg="http://www.w3.org/2000/svg">
  <sodipodi:namedview
     id="namedview2293"
     pagecolor="#ffffff"
     bordercolor="#000000"
     borderopacity="0.25"
     inkscape:showpageshadow="2"
     inkscape:pageopacity="0.0"
     inkscape:pagecheckerboard="0"
     inkscape:deskcolor="#d1d1d1"
     inkscape:export-bgcolor="#ffffff00">
    <inkscape:page
       x="0"
       y="0"
       width="31.015594"
       height="34.046871"
       id="page2"
       margin="0"
       bleed="0" />
  </sodipodi:namedview>
  <defs
     id="defs30">
    <clipPath
       id="063535977e">
      <path
         d="m 1014.5391,154.88672 h 31.0859 v 34.04687 h -31.0859 z m 0,0"
         clip-rule="nonzero"
         id="path18" />
    </clipPath>
  </defs>
  <g
     clip-path="url(#063535977e)"
     id="g66"
     inkscape:export-filename="..\..\UndoodWeb\public\gift-ico.png"
     inkscape:export-xdpi="97.650002"
     inkscape:export-ydpi="97.650002"
     transform="translate(-1014.6094,-154.88672)">
    <path
       fill="#024f7b"
       d="m 1030.4297,154.89453 c 0.1523,0 0.4258,0.0234 0.6055,0.0664 0.1836,0.0352 0.4765,0.13281 0.6601,0.21875 0.1797,0.082 0.4492,0.26562 0.6016,0.40234 0.1445,0.12891 0.3554,0.37891 0.4648,0.54297 0.1094,0.16797 0.1992,0.32031 0.211,0.33984 0.01,0.0195 0.2461,-0.1914 0.539,-0.48047 0.293,-0.28125 0.6719,-0.59375 0.836,-0.6914 0.1679,-0.0977 0.4453,-0.22656 0.6211,-0.28906 0.2109,-0.082 0.4257,-0.11719 0.6679,-0.11719 0.2422,0 0.4453,0.0352 0.6446,0.11328 0.1835,0.0703 0.371,0.19531 0.5156,0.34375 0.1289,0.125 0.3008,0.36719 0.3906,0.53125 0.086,0.16406 0.2109,0.49609 0.2734,0.73047 0.1016,0.375 0.1172,0.55078 0.1211,1.39062 0,0.52735 -0.016,1.10157 -0.078,1.59375 l 0.2461,-0.10547 c 0.1289,-0.0625 0.3633,-0.12109 0.5117,-0.13671 0.1797,-0.0156 0.3828,0.004 0.5586,0.0547 0.1524,0.043 0.3672,0.14453 0.4805,0.22657 0.1094,0.082 0.2851,0.27343 0.3945,0.41796 0.1016,0.15235 0.2461,0.44532 0.3203,0.65235 0.125,0.33984 0.1367,0.45703 0.1367,1.0625 0.01,0.48047 -0.019,0.80859 -0.086,1.11328 -0.047,0.23828 -0.1601,0.63672 -0.2422,0.88281 -0.078,0.25 -0.2617,0.6836 -0.3984,0.96094 -0.1328,0.27734 -0.3906,0.72266 -0.5664,0.98437 -0.1758,0.26563 -0.5196,0.69532 -0.7735,0.95313 -0.25,0.26172 -0.6445,0.62109 -0.8828,0.79687 -0.2383,0.17579 -0.6211,0.42969 -1.289,0.80469 l 0.6562,0.0352 c 0.3633,0.0195 1.1133,0.0703 1.668,0.11719 0.5547,0.043 1.5586,0.14843 2.2226,0.23046 0.668,0.0859 1.7618,0.24219 2.4258,0.35547 0.668,0.10938 1.4883,0.26172 1.8203,0.32813 0.336,0.0703 0.6563,0.15625 0.7227,0.19531 0.062,0.043 0.1562,0.17188 0.207,0.29297 0.062,0.12109 0.1211,0.4375 0.1524,0.74219 0.031,0.29297 0.055,0.79687 0.055,1.11328 0,0.32031 -0.024,0.78906 -0.051,1.03515 -0.027,0.25 -0.1211,0.80469 -0.1992,1.23047 -0.086,0.41797 -0.1524,0.8086 -0.1524,0.85938 0,0.043 -0.043,0.125 -0.09,0.17578 -0.078,0.082 -0.1875,0.0898 -1.7813,0.0859 v 0.79687 c 0,0.4375 -0.035,1.4336 -0.074,2.21094 -0.043,0.77734 -0.078,1.96094 -0.078,2.62891 0,0.66406 0.035,1.83984 0.082,2.60156 0.051,0.84765 0.07,1.77344 0.055,2.375 -0.019,0.76172 -0.047,1.07031 -0.125,1.36328 -0.055,0.20703 -0.1641,0.50781 -0.2383,0.66016 -0.082,0.14843 -0.2617,0.40234 -0.4062,0.55468 -0.1602,0.16797 -0.3868,0.33985 -0.586,0.4336 -0.1758,0.0937 -0.4922,0.20312 -0.6992,0.2539 -0.3516,0.082 -0.8203,0.0898 -5.7148,0.11719 -2.9297,0.0156 -6.2305,0.0234 -7.3282,0.0195 -1.0937,-0.004 -2.4023,-0.0352 -2.9062,-0.0664 -0.5,-0.0312 -1.2461,-0.0859 -1.668,-0.13282 -0.4141,-0.0391 -1.0742,-0.12109 -1.4648,-0.17578 -0.3868,-0.0547 -1.0821,-0.17969 -1.5391,-0.27734 -0.4609,-0.10156 -1.1758,-0.29297 -1.5937,-0.42969 -0.4141,-0.13281 -0.9493,-0.33984 -1.1875,-0.45312 -0.2383,-0.11719 -0.5547,-0.29688 -0.7071,-0.40235 -0.1523,-0.10547 -0.3984,-0.3164 -0.5429,-0.47265 -0.1446,-0.15625 -0.3321,-0.42579 -0.418,-0.59766 -0.082,-0.17578 -0.1758,-0.48828 -0.207,-0.69922 -0.035,-0.23437 -0.047,-0.60547 -0.024,-0.98437 0.012,-0.33204 0.09,-1.01563 0.1563,-1.51563 0.07,-0.5 0.2148,-1.61328 0.3281,-2.47656 0.1055,-0.86328 0.2422,-2.09766 0.3008,-2.73828 0.059,-0.64844 0.1015,-1.23828 0.1015,-1.45703 l -0.6406,-0.0586 c -0.3594,-0.0391 -0.7383,-0.0937 -0.8476,-0.1289 -0.1133,-0.0352 -0.3047,-0.16407 -0.4375,-0.29297 -0.1407,-0.14063 -0.2657,-0.33203 -0.3321,-0.50391 -0.062,-0.15234 -0.1328,-0.47266 -0.164,-0.70703 -0.027,-0.23828 -0.055,-0.75781 -0.055,-1.16406 0,-0.40235 0.027,-0.9961 0.051,-1.3125 0.027,-0.32032 0.086,-1.07422 0.1328,-1.66797 0.039,-0.59766 0.1015,-1.17969 0.1289,-1.28906 0.031,-0.13282 0.1289,-0.27735 0.2734,-0.41407 0.1719,-0.16797 0.3125,-0.25 0.6172,-0.33984 0.2109,-0.0664 0.5898,-0.15625 0.8437,-0.20313 0.254,-0.0391 0.7852,-0.10937 1.1875,-0.15234 0.4063,-0.043 1.0782,-0.0977 1.4922,-0.125 0.418,-0.0312 1.3946,-0.0703 3.5899,-0.125 l -0.3946,-0.22656 c -0.2148,-0.13281 -0.5937,-0.38281 -0.832,-0.5625 -0.2422,-0.1836 -0.6445,-0.51953 -0.8945,-0.75781 -0.2461,-0.23829 -0.625,-0.66797 -0.8438,-0.96094 -0.2226,-0.29297 -0.5195,-0.76953 -0.6718,-1.0625 -0.1524,-0.29297 -0.3321,-0.71094 -0.4024,-0.9336 -0.078,-0.22265 -0.1562,-0.57812 -0.1836,-0.78515 -0.023,-0.23047 -0.023,-0.52344 0.01,-0.75781 0.027,-0.23829 0.1016,-0.48829 0.1914,-0.67969 0.082,-0.16797 0.2735,-0.42578 0.4219,-0.57422 0.1445,-0.14453 0.4141,-0.33594 0.5938,-0.43359 0.1836,-0.0898 0.4453,-0.19532 0.582,-0.23829 0.1406,-0.0352 0.4687,-0.0664 0.7344,-0.0703 0.2617,0 0.6054,0.0195 1.0351,0.082 l 0.031,-0.29297 c 0.016,-0.16406 0.094,-0.4414 0.1758,-0.62109 0.086,-0.18359 0.2539,-0.42969 0.375,-0.55078 0.125,-0.12891 0.3164,-0.26953 0.4296,-0.31641 0.1094,-0.0469 0.3282,-0.10547 0.4805,-0.125 0.1524,-0.0156 0.4336,-0.004 0.6328,0.0273 0.1914,0.0352 0.5235,0.1289 0.7305,0.22265 0.207,0.0898 0.5703,0.29297 0.8086,0.44922 0.2383,0.15625 0.582,0.42188 1.1133,0.89844 v -0.48047 c 0,-0.26172 0.035,-0.65625 0.078,-0.86719 0.047,-0.21875 0.1484,-0.5664 0.2305,-0.77343 0.078,-0.21094 0.2304,-0.52735 0.332,-0.70313 0.1055,-0.17969 0.3203,-0.45703 0.4688,-0.62891 0.1523,-0.16406 0.4179,-0.39843 0.582,-0.51953 0.168,-0.11718 0.4219,-0.26953 0.5586,-0.32812 0.1328,-0.0625 0.3867,-0.13672 0.5547,-0.17578 0.1679,-0.0391 0.4297,-0.0664 0.582,-0.0664 z m 4.5508,0.6875 c -0.1289,0.0508 -0.3438,0.17188 -0.4805,0.26563 -0.1445,0.0977 -0.3672,0.27734 -0.5,0.40625 -0.1367,0.125 -0.3906,0.39843 -0.5625,0.60546 -0.1719,0.20704 -0.4336,0.57032 -0.5703,0.8086 -0.1406,0.23828 -0.2539,0.43359 -0.25,0.4414 0.01,0.004 0.1484,-0.0117 0.3164,-0.0312 0.1641,-0.0273 0.4375,-0.0273 0.6055,0 0.1679,0.0234 0.4453,0.10938 0.6211,0.19532 0.1836,0.0859 0.4179,0.26562 0.5703,0.42187 0.1484,0.14453 0.3359,0.41406 0.4297,0.61719 0.1132,0.23437 0.1914,0.48828 0.2265,0.75781 0.031,0.22266 0.043,0.55078 0.024,0.73047 -0.016,0.18359 -0.062,0.5 -0.1016,0.70703 -0.043,0.20703 -0.1523,0.60938 -0.25,0.88672 -0.09,0.27734 -0.25,0.70313 -0.3516,0.94922 -0.1015,0.24219 -0.3047,0.68359 -0.457,0.98437 -0.1445,0.30079 -0.3867,0.75 -0.5352,0.9961 -0.1445,0.25 -0.4453,0.71875 -0.6601,1.03906 -0.2149,0.31641 -0.5977,0.83594 -0.8516,1.15234 l -0.457,0.5625 0.6797,-0.004 c 0.4726,-0.51953 0.7734,-0.86328 0.9805,-1.10156 0.2031,-0.23829 0.5351,-0.66016 0.7382,-0.94141 0.2032,-0.27734 0.5547,-0.8125 0.7852,-1.1875 0.2266,-0.37109 0.543,-0.95313 0.707,-1.28906 0.1602,-0.33203 0.3867,-0.83594 0.5,-1.1211 0.1172,-0.28906 0.2891,-0.78906 0.3906,-1.10937 0.094,-0.33203 0.2188,-0.78125 0.2696,-1.00391 0.051,-0.22265 0.1328,-0.65234 0.1797,-0.95703 0.051,-0.32031 0.086,-0.87109 0.086,-1.28906 0,-0.5 -0.027,-0.85938 -0.082,-1.13672 -0.051,-0.22266 -0.1367,-0.51563 -0.2032,-0.66016 -0.058,-0.13672 -0.2109,-0.36328 -0.332,-0.49218 -0.1289,-0.13282 -0.293,-0.26563 -0.3789,-0.28907 -0.086,-0.0273 -0.2187,-0.0547 -0.3047,-0.0664 -0.086,-0.0156 -0.2422,-0.0117 -0.3515,0.0156 -0.1133,0.0195 -0.3047,0.082 -0.4297,0.13672 z m -5.6641,0.15234 c -0.125,0.0703 -0.3359,0.22657 -0.4726,0.33594 -0.1368,0.11719 -0.3477,0.34375 -0.4766,0.51172 -0.125,0.16797 -0.3086,0.47266 -0.4024,0.68359 -0.098,0.20704 -0.2187,0.5586 -0.2773,0.78125 -0.074,0.27735 -0.1016,0.57813 -0.1016,0.96094 0,0.3086 0.024,0.6875 0.055,0.84766 0.051,0.23437 0.1172,0.35547 0.3516,0.63281 0.1601,0.1875 0.418,0.50391 0.5664,0.70703 0.1523,0.19922 0.2852,0.35547 0.2891,0.34766 0.01,-0.004 -0.024,-0.21485 -0.066,-0.46485 -0.055,-0.32031 -0.074,-0.65625 -0.055,-1.16015 0.016,-0.51172 0.051,-0.82031 0.1328,-1.11328 0.059,-0.22266 0.1797,-0.55078 0.2656,-0.73047 0.098,-0.19922 0.2734,-0.44531 0.4414,-0.61328 0.207,-0.20703 0.3516,-0.30469 0.5586,-0.375 0.1797,-0.0547 0.375,-0.0781 0.5313,-0.0703 0.1406,0.0156 0.3945,0.0898 0.582,0.1836 0.1836,0.0859 0.4492,0.27344 0.5976,0.41406 0.1407,0.14063 0.2657,0.25391 0.2774,0.24609 0.012,-0.008 0.125,-0.1914 0.2539,-0.40234 0.1289,-0.21875 0.2344,-0.42578 0.2344,-0.45703 0,-0.0352 -0.086,-0.21094 -0.1836,-0.39453 -0.1016,-0.17969 -0.2813,-0.41797 -0.3946,-0.53125 -0.1132,-0.11328 -0.3046,-0.26563 -0.4296,-0.33594 -0.129,-0.0781 -0.3672,-0.17187 -0.5313,-0.21875 -0.168,-0.0391 -0.4492,-0.0742 -0.6328,-0.0703 -0.1836,0 -0.4531,0.0352 -0.6055,0.0742 -0.1523,0.043 -0.3789,0.13672 -0.5078,0.21093 z m 0.6172,2.10157 c -0.059,0.0586 -0.1914,0.25781 -0.2813,0.4375 -0.098,0.18359 -0.207,0.45703 -0.25,0.60937 -0.043,0.14844 -0.1054,0.49219 -0.1406,0.75781 -0.039,0.35938 -0.039,0.60157 0.01,0.96094 0.031,0.26172 0.1133,0.69531 0.1758,0.95703 0.066,0.26563 0.2149,0.70703 0.332,0.98828 0.1094,0.27735 0.3282,0.73047 0.4844,1.00782 0.1563,0.28125 0.3008,0.52734 0.3242,0.55859 0.024,0.0273 0.055,-0.0664 0.07,-0.22656 0.01,-0.15235 0.043,-0.58985 0.074,-0.96094 0.031,-0.375 0.1015,-0.94531 0.1562,-1.26562 0.062,-0.31641 0.1797,-0.85157 0.2578,-1.1875 0.086,-0.33204 0.2578,-0.87891 0.3868,-1.21094 0.121,-0.33594 0.2343,-0.66797 0.246,-0.7461 0.016,-0.11328 -0.031,-0.19531 -0.2421,-0.42187 -0.1485,-0.15234 -0.3789,-0.33594 -0.5196,-0.40625 -0.1445,-0.0703 -0.3437,-0.12109 -0.457,-0.12109 -0.1094,0 -0.2656,0.0352 -0.3516,0.082 -0.086,0.0391 -0.2031,0.125 -0.2695,0.1875 z m -6.7422,0.84375 c -0.074,0.0937 -0.1797,0.27734 -0.2383,0.40234 -0.055,0.12891 -0.1133,0.36328 -0.1289,0.53125 -0.019,0.17188 -0.012,0.49609 0.024,0.75781 0.035,0.25 0.1445,0.69532 0.2382,0.98828 0.098,0.29297 0.3086,0.79297 0.4766,1.10938 0.1602,0.32031 0.4727,0.82031 0.6953,1.11328 0.2188,0.29297 0.5508,0.69531 0.7422,0.90234 0.1953,0.21094 0.5664,0.5586 0.832,0.77344 0.2618,0.22266 0.6602,0.52344 0.8828,0.67578 0.2227,0.14453 0.5977,0.3711 0.836,0.5 0.2344,0.1211 0.6289,0.3086 0.8828,0.40625 0.2539,0.10157 0.7227,0.26563 1.0508,0.35938 0.3242,0.0937 0.6054,0.17187 0.6328,0.17187 0.02,0 -0.2578,-0.17968 -0.6211,-0.41015 -0.3633,-0.21875 -0.9297,-0.60157 -1.2656,-0.83203 -0.3321,-0.23438 -0.8516,-0.6211 -1.1602,-0.86329 -0.3047,-0.24218 -0.789,-0.67187 -1.0781,-0.95312 -0.2891,-0.27734 -0.6484,-0.66016 -0.7969,-0.85547 -0.1484,-0.19531 -0.375,-0.53906 -0.5,-0.76172 -0.1289,-0.21875 -0.289,-0.58594 -0.3594,-0.80859 -0.07,-0.21875 -0.1445,-0.5586 -0.1562,-0.75781 -0.016,-0.20704 0,-0.44532 0.035,-0.57813 0.027,-0.12891 0.1211,-0.31641 0.1915,-0.42187 0.078,-0.10938 0.2304,-0.23829 0.3632,-0.29688 0.1719,-0.082 0.2774,-0.0977 0.4453,-0.0781 0.1172,0.0234 0.3438,0.0977 0.5,0.17968 0.1602,0.0742 0.461,0.30078 0.6875,0.51563 0.2227,0.20703 0.5508,0.55859 0.7266,0.78125 0.1758,0.22265 0.4688,0.62109 0.6406,0.88672 0.1797,0.26172 0.4766,0.74218 0.6602,1.05859 0.1797,0.32031 0.4648,0.89063 0.625,1.26563 0.168,0.375 0.3711,0.89062 0.457,1.13671 0.078,0.2461 0.1836,0.57032 0.2266,0.70704 0.07,0.24609 0.086,0.25781 0.543,0.51953 0.2656,0.14843 0.4882,0.2539 0.5039,0.23828 0.012,-0.0156 -0.051,-0.29688 -0.1485,-0.6211 -0.09,-0.32421 -0.2734,-0.86328 -0.3984,-1.19921 -0.1211,-0.33204 -0.3555,-0.86719 -0.5156,-1.1875 -0.1563,-0.31641 -0.4141,-0.78907 -0.5664,-1.03516 -0.1563,-0.24609 -0.4844,-0.73438 -0.7266,-1.07031 -0.25,-0.33985 -0.668,-0.8711 -0.9297,-1.1836 -0.2656,-0.30859 -0.6992,-0.76953 -0.9609,-1.01562 -0.2657,-0.25391 -0.6641,-0.57813 -0.8868,-0.72656 -0.2226,-0.14844 -0.5156,-0.32032 -0.6562,-0.37891 -0.1367,-0.0625 -0.3633,-0.14453 -0.5039,-0.17969 -0.1367,-0.0391 -0.3789,-0.0703 -0.5313,-0.0664 -0.1523,0 -0.3593,0.0273 -0.457,0.0625 -0.094,0.0352 -0.2344,0.14062 -0.3125,0.23828 z m 9.1836,0.14453 c -0.1211,0.0781 -0.1875,0.19531 -0.332,0.59375 -0.1016,0.27734 -0.2422,0.71484 -0.3203,0.98047 -0.07,0.26172 -0.1719,0.69531 -0.2266,0.96093 -0.055,0.26172 -0.1367,0.77735 -0.1875,1.13672 -0.07,0.5 -0.09,1.00391 -0.09,2.1211 -0.01,0.86328 0.019,1.70312 0.058,2.04687 0.035,0.32031 0.078,0.66797 0.086,0.77344 l 0.027,0.1875 c 0.2461,-0.29688 0.2539,-0.3125 0.2032,-0.71875 -0.031,-0.23047 -0.051,-0.71094 -0.051,-1.07422 0,-0.35937 0.023,-0.875 0.051,-1.13672 0.027,-0.26562 0.094,-0.74609 0.1484,-1.0625 0.051,-0.32031 0.1797,-0.85547 0.2734,-1.1875 0.094,-0.33594 0.2578,-0.83594 0.3594,-1.11328 0.1055,-0.27734 0.3125,-0.75391 0.4688,-1.0625 0.1523,-0.30859 0.371,-0.69141 0.4804,-0.85937 0.1172,-0.16407 0.2852,-0.38672 0.375,-0.48829 l 0.168,-0.1914 c -0.1992,-0.082 -0.375,-0.11328 -0.5156,-0.12891 -0.1641,-0.0156 -0.3789,0.008 -0.5469,0.0586 -0.1524,0.0391 -0.3438,0.11328 -0.4297,0.16406 z m 1.3906,0.91797 c -0.1211,0.17968 -0.3593,0.60937 -0.5273,0.95703 -0.1602,0.35156 -0.4024,0.96094 -0.5391,1.36719 -0.1328,0.40234 -0.2812,0.96093 -0.3437,1.23828 -0.055,0.27734 -0.1367,0.77734 -0.1836,1.10937 -0.047,0.40235 -0.074,0.90235 -0.062,1.46875 l 0.012,0.85938 c 0.5078,-0.70313 0.8008,-1.14844 0.9766,-1.44141 0.1757,-0.29297 0.5,-0.89453 0.7187,-1.33984 0.2149,-0.44532 0.4805,-1.03516 0.582,-1.3125 0.1055,-0.28125 0.2461,-0.72657 0.3164,-0.98828 0.098,-0.36719 0.129,-0.60938 0.1329,-1.0586 0,-0.32031 -0.02,-0.67578 -0.055,-0.78515 -0.035,-0.11329 -0.1367,-0.3125 -0.2305,-0.44922 -0.09,-0.14063 -0.1914,-0.25782 -0.2227,-0.26953 -0.027,-0.008 -0.121,0.0547 -0.1992,0.14843 -0.082,0.0898 -0.25,0.3125 -0.375,0.4961 z m 3.8399,0.44922 c -0.094,0.0742 -0.2149,0.21484 -0.2617,0.3125 -0.047,0.0977 -0.094,0.25781 -0.1094,0.36328 l -0.031,0.1875 c 0.3125,0 0.4961,0.0469 0.6055,0.10156 0.1133,0.0547 0.2578,0.17578 0.3242,0.26562 0.066,0.0859 0.1602,0.25391 0.207,0.36719 0.055,0.125 0.098,0.39063 0.1094,0.70703 0.024,0.3711 0.01,0.59375 -0.059,0.85938 -0.047,0.19531 -0.1914,0.57812 -0.3281,0.85937 -0.1367,0.27735 -0.3906,0.6875 -0.5664,0.91016 -0.1758,0.21875 -0.4805,0.53906 -0.6719,0.69922 -0.1992,0.16797 -0.5156,0.40625 -0.707,0.53125 -0.1914,0.1289 -0.5586,0.32422 -0.8086,0.4414 -0.2539,0.11719 -0.6328,0.27344 -0.8438,0.34375 -0.2187,0.0703 -0.4375,0.12891 -0.4804,0.12891 -0.051,0 -0.2656,0.1875 -0.4766,0.41406 l -0.3828,0.42188 c 0.8672,0.0586 1.2539,0.0742 1.4141,0.0742 0.2539,0 0.3632,-0.0391 0.9101,-0.3086 0.3399,-0.16406 0.8438,-0.45312 1.1211,-0.64062 0.3125,-0.20703 0.6992,-0.52735 1.0117,-0.83985 0.2969,-0.29687 0.6407,-0.70703 0.8282,-0.98828 0.1718,-0.26562 0.414,-0.6875 0.5351,-0.9375 0.1289,-0.24609 0.293,-0.67187 0.3789,-0.93359 0.086,-0.26172 0.1914,-0.6875 0.2383,-0.93359 0.051,-0.30469 0.066,-0.63282 0.051,-0.98829 -0.016,-0.36718 -0.055,-0.61718 -0.125,-0.80859 -0.062,-0.15234 -0.2031,-0.38672 -0.3242,-0.52344 -0.1211,-0.13672 -0.293,-0.27734 -0.3789,-0.32031 -0.094,-0.0352 -0.2735,-0.0664 -0.4063,-0.0664 -0.1367,0.008 -0.3242,0.043 -0.418,0.082 -0.098,0.0469 -0.2578,0.14062 -0.3554,0.21875 z m -17.461,0.26562 c -0.1367,0.0703 -0.3476,0.23438 -0.4648,0.36328 -0.1211,0.12891 -0.2461,0.29297 -0.2891,0.375 -0.035,0.0781 -0.094,0.27344 -0.1289,0.44141 -0.035,0.17578 -0.051,0.42969 -0.031,0.60547 0.019,0.16797 0.066,0.4414 0.1093,0.60547 0.043,0.16796 0.1875,0.53125 0.3204,0.80859 0.1289,0.27734 0.375,0.69922 0.5351,0.9375 0.1602,0.23437 0.4102,0.56641 0.5508,0.72656 0.1406,0.16797 0.4492,0.46875 0.6875,0.67578 0.2383,0.20703 0.6133,0.5 0.832,0.66016 0.2227,0.15625 0.6094,0.39062 0.8594,0.51953 0.2539,0.12891 0.6484,0.29688 0.8867,0.36719 0.2383,0.0664 0.5664,0.15234 0.7305,0.17969 0.168,0.0273 0.4531,0.0547 0.6328,0.0547 h 0.3281 c -0.5429,-0.35937 -0.8086,-0.54687 -0.9336,-0.64843 -0.125,-0.10157 -0.4101,-0.34375 -0.6289,-0.53516 -0.2148,-0.19531 -0.5781,-0.57422 -0.8008,-0.83984 -0.2187,-0.26172 -0.5312,-0.67188 -0.6953,-0.91016 -0.1562,-0.23438 -0.3828,-0.61719 -0.5,-0.84375 -0.1093,-0.23047 -0.2617,-0.61719 -0.332,-0.85938 -0.09,-0.3164 -0.125,-0.5664 -0.1328,-0.875 0,-0.37109 0.023,-0.46484 0.1445,-0.69921 0.098,-0.19532 0.1953,-0.30079 0.3438,-0.37891 0.1093,-0.0586 0.207,-0.10938 0.2148,-0.10938 0.012,0 -0.01,-0.16406 -0.035,-0.36328 -0.055,-0.35156 -0.059,-0.36718 -0.2149,-0.42187 -0.094,-0.0312 -0.4062,-0.0664 -0.6992,-0.0781 -0.3399,-0.008 -0.6211,0.004 -0.7852,0.0469 -0.1328,0.0391 -0.3632,0.125 -0.5039,0.19531 z m 4.5899,0.41016 c -0.016,0.20312 0.01,0.42968 0.055,0.64062 0.047,0.1836 0.1718,0.51172 0.2851,0.73438 0.1055,0.22265 0.3438,0.59765 0.5196,0.83203 0.1757,0.23828 0.5351,0.63281 0.7968,0.88281 0.2657,0.24609 0.6953,0.62109 0.9571,0.83203 0.2617,0.21094 0.707,0.54688 0.9843,0.74219 0.2774,0.19922 0.5703,0.40625 0.6524,0.45703 l 0.1406,0.0937 c -0.2461,-0.66406 -0.4336,-1.12109 -0.5742,-1.4375 -0.1406,-0.32031 -0.3867,-0.80859 -0.5352,-1.08984 -0.1523,-0.27735 -0.4453,-0.75 -0.6484,-1.0586 -0.2031,-0.30859 -0.5156,-0.73828 -0.6914,-0.96093 -0.1797,-0.22266 -0.4727,-0.53516 -0.6485,-0.70313 -0.1757,-0.16016 -0.4296,-0.34766 -0.5585,-0.41406 -0.1368,-0.0664 -0.2969,-0.1211 -0.3594,-0.1211 -0.066,0 -0.1719,0.0547 -0.2344,0.125 -0.086,0.0977 -0.1211,0.21485 -0.1406,0.44532 z m 12.1094,1.27734 c -0.1016,0.25 -0.1954,0.48828 -0.2188,0.52734 -0.023,0.0625 0.016,0.0742 0.1836,0.082 0.1367,0 0.3086,0.0508 0.4609,0.13671 0.1602,0.0937 0.2774,0.21094 0.3711,0.37891 0.1328,0.23047 0.1367,0.23047 0.1797,0.10938 0.024,-0.0703 0.066,-0.27344 0.094,-0.45313 0.035,-0.23047 0.031,-0.42187 -0.01,-0.63281 -0.031,-0.16797 -0.098,-0.3711 -0.1485,-0.45703 -0.051,-0.0781 -0.168,-0.17969 -0.2578,-0.21485 -0.094,-0.0352 -0.207,-0.0625 -0.2461,-0.0625 -0.047,0 -0.1133,0.0312 -0.1523,0.0664 -0.043,0.043 -0.1563,0.27344 -0.2578,0.51953 z m -14.6329,-0.0547 c -0.016,0.11328 -0.01,0.33985 0.027,0.50782 0.031,0.16406 0.094,0.42968 0.1445,0.57812 0.059,0.15234 0.1719,0.42578 0.2656,0.60938 0.09,0.17968 0.2774,0.5 0.418,0.70703 0.1367,0.20703 0.3789,0.53515 0.5352,0.72656 0.1562,0.19141 0.457,0.51953 0.664,0.72656 0.2071,0.20703 0.5391,0.51172 0.7305,0.66797 0.1914,0.15625 0.4727,0.36328 0.6055,0.45703 0.1445,0.0937 0.5273,0.30078 0.8593,0.45703 l 0.6094,0.28516 c 2.1133,0.0898 2.8281,0.12891 2.957,0.14062 0.129,0.0156 -0.027,-0.0469 -0.3789,-0.14062 -0.3359,-0.0898 -0.8242,-0.24219 -1.0898,-0.33984 -0.2617,-0.0937 -0.75,-0.3086 -1.0859,-0.48047 -0.3321,-0.16407 -0.7891,-0.42188 -1.0118,-0.57422 -0.2226,-0.14844 -0.6054,-0.4375 -0.8593,-0.63672 -0.25,-0.20313 -0.6602,-0.58203 -0.9063,-0.83984 -0.2539,-0.26172 -0.5976,-0.65625 -0.7656,-0.87891 -0.168,-0.22266 -0.3867,-0.53516 -0.4883,-0.69141 -0.1016,-0.16406 -0.3008,-0.51562 -0.4375,-0.78515 -0.1289,-0.27344 -0.2852,-0.60547 -0.3359,-0.73828 -0.051,-0.13282 -0.1211,-0.24219 -0.1563,-0.23829 -0.031,0 -0.1094,0.0625 -0.168,0.14063 -0.055,0.0781 -0.1171,0.23047 -0.1328,0.33984 z m 14.0821,1.47266 c -0.047,0.0547 -0.211,0.34375 -0.375,0.65234 -0.1641,0.3086 -0.4492,0.79297 -0.6328,1.08594 -0.1797,0.29297 -0.4375,0.67969 -0.5704,0.875 -0.1289,0.18359 -0.2382,0.34766 -0.2265,0.36328 0.01,0.008 0.1914,-0.0625 0.414,-0.15625 0.2227,-0.0977 0.5508,-0.26562 0.7344,-0.37109 0.1797,-0.10547 0.4727,-0.3125 0.6563,-0.45313 0.1836,-0.14062 0.4804,-0.43359 0.6679,-0.64843 l 0.3438,-0.39454 c 0,-0.58984 -0.031,-0.79296 -0.078,-0.88281 -0.039,-0.082 -0.1368,-0.19922 -0.211,-0.2539 -0.082,-0.0586 -0.1875,-0.10547 -0.2422,-0.10157 -0.055,0 -0.1679,0.0469 -0.2539,0.0977 -0.086,0.0508 -0.1875,0.13672 -0.2265,0.1875 z m -17.7383,4.87109 c -0.375,0.0312 -1.0039,0.10157 -1.3906,0.15625 -0.3907,0.0547 -0.8711,0.14844 -1.0625,0.20313 -0.1914,0.0547 -0.418,0.15234 -0.4961,0.21094 -0.125,0.0977 -0.1524,0.16406 -0.1914,0.51562 -0.024,0.22266 -0.09,0.98438 -0.1446,1.69531 -0.059,0.70703 -0.1015,1.67578 -0.1015,2.14453 0,0.47266 0.023,1.00782 0.047,1.19141 0.031,0.17969 0.1094,0.42969 0.168,0.55469 0.086,0.17578 0.1719,0.25781 0.3633,0.35156 l 0.2539,0.12891 c 4.9922,-0.0117 6.8281,-0.0469 8.0625,-0.0977 1.0703,-0.043 2.6641,-0.12891 3.5352,-0.1875 0.875,-0.0508 1.5976,-0.10156 1.6054,-0.10937 0.01,-0.004 0.012,-1.52344 0.012,-3.3711 l 0.01,-3.36328 c -1,-0.0547 -2.0313,-0.0937 -2.9336,-0.12109 -0.9063,-0.0273 -2.5079,-0.0508 -3.5664,-0.043 -1.0547,0 -2.2735,0.0195 -2.7032,0.043 -0.4297,0.0234 -1.0898,0.0625 -1.4648,0.0977 z m 11.2031,1.875 c -0.023,1.01172 -0.023,2.51563 0,3.35157 l 0.043,1.51171 c 0.9805,-0.0508 1.4805,-0.082 1.7422,-0.0977 l 0.4804,-0.0312 c 0.059,-1.77344 0.074,-3.21485 0.074,-4.34375 v -2.0625 c -0.1758,-0.0352 -0.543,-0.0547 -0.9336,-0.0781 -0.3907,-0.0156 -0.8555,-0.0391 -1.0352,-0.0547 l -0.3281,-0.0312 z m 2.8399,1.54297 0.01,3.14844 c 0.2578,0 1.6289,-0.0664 3.2109,-0.14844 1.5859,-0.082 3.1406,-0.16015 3.4609,-0.17969 0.3243,-0.0156 1.4727,-0.0625 2.5508,-0.10156 1.0899,-0.043 2.2266,-0.0703 2.5274,-0.0703 h 0.5586 c 0.094,-0.41406 0.1757,-0.79688 0.2422,-1.11719 0.1015,-0.50781 0.1093,-0.73047 0.1093,-1.79687 0,-0.79688 -0.019,-1.28125 -0.059,-1.42578 l -0.066,-0.21485 c -1.2695,-0.23437 -2.0508,-0.36328 -2.5547,-0.44922 -0.5,-0.082 -1.2461,-0.19922 -1.664,-0.2539 -0.418,-0.0547 -1.1992,-0.14844 -1.7461,-0.20313 -0.5391,-0.0547 -1.5156,-0.13672 -2.1719,-0.17578 -0.6523,-0.0391 -1.7109,-0.10156 -2.3516,-0.125 -0.6367,-0.0312 -1.3437,-0.0664 -1.5664,-0.082 -0.2226,-0.0156 -0.4257,-0.0117 -0.4492,0.008 -0.027,0.0234 -0.043,1.45313 -0.035,3.1875 z m 7.7148,3.32813 c -1.0586,0.043 -3.1953,0.14453 -4.7539,0.23047 -1.5547,0.0781 -2.8594,0.14453 -2.9063,0.14453 -0.058,0 -0.086,0.22265 -0.1367,1.42968 -0.039,0.78516 -0.098,1.92579 -0.1406,2.53907 -0.039,0.60937 -0.1875,2.61328 -0.3242,4.44531 -0.1406,1.83594 -0.2695,3.60547 -0.293,3.93359 l -0.039,0.59766 c 8.332,0 9.1171,-0.0156 9.4921,-0.0781 0.2422,-0.043 0.5704,-0.14062 0.7266,-0.21484 0.1563,-0.0781 0.375,-0.24609 0.4922,-0.37109 0.1094,-0.1211 0.2578,-0.33985 0.3164,-0.48047 0.062,-0.13672 0.1484,-0.42188 0.1914,-0.64063 0.059,-0.28515 0.078,-0.68359 0.078,-1.4414 0,-0.57422 -0.035,-1.61719 -0.078,-2.3125 -0.039,-0.69532 -0.07,-1.70703 -0.07,-2.25 0,-0.54297 0.02,-1.42578 0.051,-1.97266 0.031,-0.53906 0.07,-1.55078 0.09,-2.25 0.027,-0.69141 0.027,-1.29297 0.012,-1.33594 -0.02,-0.0586 -0.1054,-0.0742 -0.4101,-0.0625 -0.2071,0.004 -1.2422,0.0469 -2.3008,0.0898 z m -10.3203,0.52343 -0.2695,0.004 c 0,1.19531 -0.02,2.19141 -0.047,2.98047 -0.031,0.79297 -0.074,1.91016 -0.1055,2.47656 -0.031,0.57031 -0.094,1.65235 -0.1523,2.40235 -0.051,0.7539 -0.1407,2.03515 -0.1953,2.85546 -0.055,0.82422 -0.1016,1.63672 -0.1016,1.8086 l -0.01,0.3125 2.0469,0.004 c 0.1054,-1.42968 0.2461,-3.32421 0.3828,-5.13281 0.1367,-1.80469 0.2851,-3.83984 0.3242,-4.52344 0.043,-0.67578 0.086,-1.64843 0.1055,-2.14843 0.016,-0.5 0.043,-0.96094 0.051,-1.01953 0.02,-0.11329 0.012,-0.11719 -0.3671,-0.10938 -0.2188,0.008 -0.6211,0.0273 -0.9024,0.0469 -0.2773,0.0195 -0.6211,0.043 -0.7656,0.043 z m -6.1836,0.32813 c -1.1211,0.043 -2.9727,0.0898 -4.1016,0.10547 -1.6054,0.0195 -2.0625,0.0391 -2.0586,0.0898 0,0.0352 -0.047,0.60547 -0.1054,1.27344 -0.055,0.66797 -0.1914,1.92969 -0.3047,2.80469 -0.1094,0.8789 -0.2578,2.0039 -0.3281,2.5039 -0.07,0.5 -0.1407,1.20703 -0.1563,1.56641 -0.027,0.44922 -0.016,0.76172 0.031,0.98437 0.035,0.1836 0.1054,0.41407 0.1601,0.51954 0.051,0.10937 0.1758,0.28515 0.2852,0.40234 0.1054,0.11328 0.3125,0.29297 0.4648,0.39453 0.1563,0.10547 0.4141,0.25391 0.5781,0.33984 0.168,0.0859 0.5469,0.23829 0.836,0.33985 0.2929,0.10156 0.8281,0.26172 1.1875,0.35937 0.3633,0.0898 0.9648,0.22657 1.3398,0.29297 0.3789,0.0703 0.9531,0.16016 1.2891,0.20703 0.332,0.043 0.9687,0.11328 1.414,0.15235 0.4454,0.0391 1.379,0.10156 2.0743,0.125 0.6953,0.0312 1.457,0.0508 1.6914,0.0508 h 0.4297 c 0.1015,-1.58203 0.1953,-2.97656 0.2773,-4.11719 0.082,-1.13672 0.1719,-2.49219 0.2031,-3.00781 0.024,-0.51172 0.07,-1.66406 0.1016,-2.55469 0.031,-0.88672 0.066,-1.94922 0.074,-2.35937 l 0.027,-0.7461 c -0.3711,0.008 -1.129,0.0547 -1.9219,0.10547 -0.7891,0.0508 -2.3594,0.125 -3.4883,0.16797 z m 0,0"
       fill-opacity="1"
       fill-rule="evenodd"
       id="path66" />
  </g>
</svg>
