<svg width="87" height="87" viewBox="0 0 87 87" fill="none" xmlns="http://www.w3.org/2000/svg">
<path d="M18.0083 33.0878C17.5969 33.067 17.3104 33.4211 17.2323 34.0513L16.576 44.6555C16.5708 44.6815 16.5708 44.7076 16.5656 44.7336C16.5604 44.7597 16.55 44.7805 16.5448 44.8065C17.076 44.9628 17.6073 45.1503 18.1229 45.3638C18.3781 41.7336 18.7792 34.1815 18.7844 34.0982C18.7844 33.4784 18.3938 33.1086 18.0083 33.0878Z" fill="currentColor"/>
<path d="M12.5552 29.0045C12.3937 29.0045 12.1646 29.0461 11.9771 29.2388C11.7948 29.4315 11.6958 29.7336 11.6958 30.119C11.6958 30.5565 11.7271 31.6138 11.7687 32.9732C11.8781 36.593 12.0448 42.0461 11.8833 43.994C12.4458 44.0357 13.0656 44.0982 13.7271 44.1972C13.6125 41.0149 13.7114 32.4107 13.7479 30.5409C13.7479 29.5357 13.1489 29.0045 12.5552 29.0045Z" fill="currentColor"/>
<path d="M22.7219 38.4263C22.3677 38.3638 22.0917 38.6242 21.9875 39.119L20.8677 46.3951C20.8625 46.4419 20.8521 46.4888 20.8365 46.5305C20.7948 46.6399 20.7375 46.7388 20.6802 46.8274C20.9823 47.0669 21.274 47.3222 21.5448 47.593C21.8209 47.8742 21.8156 48.3274 21.5396 48.6034C21.399 48.7388 21.2167 48.8065 21.0396 48.8065C20.8521 48.8065 20.6698 48.7336 20.5292 48.593C16.9875 44.9836 9.39377 45.3638 9.31564 45.369C8.93023 45.3899 8.59168 45.093 8.56564 44.6972C8.55002 44.3794 8.75314 44.1086 9.0396 44.0044L8.13856 34.6503C8.08127 33.8586 7.7271 33.244 7.20106 32.994C6.90939 32.8586 6.60731 32.8534 6.40939 32.994C6.18023 33.1503 6.07606 33.4992 6.11252 33.968L7.25835 50.718C7.26356 50.7753 7.25835 50.8378 7.24794 50.8951C7.11252 51.6242 6.77398 52.093 6.37294 52.3847C6.52918 52.494 6.69064 52.6034 6.86252 52.718C8.03439 53.494 9.49794 54.4628 9.20106 57.7336C9.1646 58.1242 8.81564 58.4211 8.43023 58.3794C8.0396 58.343 7.74794 57.9992 7.78439 57.6086C8.00314 55.1815 7.15419 54.619 6.07606 53.9003C5.21148 53.3274 4.2271 52.6763 3.92502 51.1086C3.50314 48.2544 3.13856 46.869 3.13856 46.8534C2.82085 45.8951 2.08648 45.619 1.67502 45.5409C1.09169 45.4263 0.503143 45.593 0.206268 45.9524C-0.0437316 46.2544 -0.0645656 46.6659 0.133352 47.1815C1.32606 50.0565 1.6021 52.8482 1.84689 55.3169C2.33127 60.1555 2.62294 63.0617 9.29481 62.8222C9.69585 62.8013 10.0188 63.1138 10.0344 63.5044C10.05 63.9003 9.74273 64.2284 9.3521 64.244C9.07606 64.2544 8.81043 64.2597 8.55523 64.2597C7.84689 64.2597 7.22189 64.2076 6.63335 64.1347L6.71148 86.6919H19.4667L19.1646 63.9159C18.5292 64.093 17.8469 64.1867 17.1073 64.1867C16.5761 64.1867 16.024 64.1399 15.4406 64.0513C15.05 63.9888 14.7896 63.6242 14.8469 63.2388C14.9094 62.8482 15.274 62.5878 15.6594 62.6451C17.6959 62.9628 19.3104 62.6399 20.4563 61.6763C22.3104 60.119 22.3834 57.3951 22.3834 57.3638L23.3156 39.6294C23.4146 38.8742 23.0761 38.4888 22.7219 38.4263Z" fill="currentColor"/>
<path d="M44.4562 31.1034C44.4978 28.5826 44.6489 24.8274 44.7895 21.1816C44.9093 18.1711 45.0239 15.3274 45.0656 13.4889C45.0656 12.5461 44.6697 11.9055 44.1541 11.5774C44.1437 11.5722 44.1333 11.5722 44.1281 11.5618C44.1228 11.5618 44.1228 11.5566 44.1176 11.5566C43.8624 11.4003 43.576 11.3118 43.2895 11.3118C43.0395 11.3118 42.8051 11.3795 42.6072 11.4993C42.602 11.5045 42.602 11.5097 42.5916 11.5149C42.5812 11.5253 42.5656 11.5253 42.5551 11.5357C42.4926 11.5774 42.4353 11.6243 42.3781 11.6764C42.102 11.9628 41.9562 12.4003 41.9562 12.942C41.9614 17.2545 42.0343 26.9889 42.1437 30.8326C42.8572 30.8899 43.6385 30.9732 44.4562 31.1034Z" fill="currentColor"/>
<path d="M27.0811 45.2701C26.7739 42.2232 26.4197 38.7701 24.9614 35.2962C24.477 34.0826 24.5916 32.9524 25.2895 32.1034C26.0499 31.1764 27.4197 30.7337 28.7791 30.9889C30.2947 31.2701 31.4561 32.2962 31.9614 33.8118C31.9926 33.9264 32.4718 35.718 33.0343 39.442C33.0916 39.7337 33.1801 39.9837 33.2895 40.2076C33.5968 40.1555 33.977 39.9368 34.1332 39.2128L33.9093 17.9524C33.9093 16.8118 34.3468 16.1295 34.7114 15.7545C35.1957 15.2597 35.8624 14.9836 36.5864 14.9836C38.1541 14.9836 39.8207 16.2701 39.8207 18.6555V30.7232C40.0916 30.7284 40.3884 30.7337 40.7166 30.7493C40.6072 26.8014 40.5395 17.218 40.5343 12.942C40.5343 11.9107 40.8832 11.2441 41.227 10.8326C31.753 -2.17781 18.5603 -2.01635 10.2061 3.72844C0.383228 10.4889 -4.17927 25.2909 5.1801 41.1816L4.69573 34.0722C4.58635 32.7337 5.21136 32.0878 5.60198 31.8222C6.22177 31.3899 7.0499 31.3482 7.81031 31.7076C8.8051 32.1816 9.45615 33.2337 9.5551 34.5253L10.4614 43.9316C10.6228 42.093 10.4509 36.4107 10.3468 33.0149C10.3051 31.6399 10.2739 30.5618 10.2739 30.1191C10.2739 29.1607 10.6436 28.5722 10.9509 28.2493C11.3676 27.817 11.9353 27.5826 12.5499 27.5826C13.8207 27.5826 15.1697 28.6243 15.1697 30.5566C15.128 32.4993 15.0291 41.6087 15.1593 44.4524L15.8155 33.9212C16.0134 32.2701 17.0916 31.6191 18.0916 31.6659C19.1176 31.7284 20.2009 32.6139 20.2009 34.1347C20.1957 34.2545 19.7686 42.3847 19.5134 45.8534L20.5864 38.8639C20.9041 37.3639 22.0395 36.8639 22.9614 37.0253C23.9926 37.2024 24.9353 38.2024 24.7322 39.7597L23.8051 57.4159C23.8051 57.4889 23.7686 58.7805 23.1749 60.218C26.253 62.5149 29.6697 64.7753 33.3468 66.9576L33.3103 55.9003C28.0186 54.5045 27.5759 50.1503 27.0811 45.2701Z" fill="currentColor"/>
<path d="M75.0551 30.119C75.0551 29.7336 74.9562 29.4315 74.7739 29.2388C74.5864 29.0461 74.3572 29.0045 74.1958 29.0045C73.602 29.0045 73.0031 29.5357 73.0031 30.5565C73.0395 32.4107 73.1385 41.0149 73.0239 44.1972C73.6853 44.0982 74.3103 44.0357 74.8728 43.994C74.7062 42.0461 74.8728 36.5982 74.9822 32.9732C75.0239 31.6138 75.0551 30.5565 75.0551 30.119Z" fill="currentColor"/>
<path d="M86.5448 45.9524C86.248 45.593 85.6594 45.4264 85.0761 45.5357C84.6698 45.6139 83.9303 45.8951 83.6021 46.8899C83.6073 46.8899 83.248 48.2805 82.8313 51.0774C82.7219 51.6399 82.5292 52.0774 82.2896 52.4472C82.2844 52.4524 82.2792 52.4628 82.274 52.468C81.8313 53.1295 81.2323 53.5357 80.675 53.9003C79.5969 54.6139 78.748 55.1816 78.9667 57.6087C79.0032 57.9993 78.7115 58.343 78.3209 58.3795C77.9303 58.4212 77.5865 58.1243 77.55 57.7337C77.2532 54.4628 78.7167 53.4941 79.8886 52.718C80.0605 52.6034 80.2219 52.4941 80.3782 52.3847C79.9771 52.093 79.6386 51.6243 79.5032 50.8951C79.4928 50.8378 79.4875 50.7753 79.4928 50.718L80.6386 33.9784C80.675 33.4941 80.5709 33.1503 80.3417 32.9889C80.1438 32.8534 79.8417 32.8534 79.55 32.9941C79.024 33.2441 78.675 33.8587 78.6125 34.6347L77.7115 43.9993C78.0032 44.1087 78.2011 44.3795 78.1855 44.6972C78.1594 45.093 77.8209 45.3899 77.4355 45.3691C77.3573 45.3639 69.7636 44.9837 66.2219 48.593C66.0813 48.7337 65.8938 48.8066 65.7115 48.8066C65.5344 48.8066 65.3521 48.7337 65.2115 48.5982C64.9355 48.3274 64.9303 47.8743 65.2063 47.593C65.4771 47.317 65.7688 47.067 66.0709 46.8274C66.0136 46.7389 65.9563 46.6399 65.9146 46.5305C65.899 46.4837 65.8886 46.4368 65.8834 46.3899L64.7584 39.0774C64.6594 38.6243 64.3886 38.3639 64.0292 38.4264C63.675 38.4889 63.3365 38.8743 63.4303 39.5774L64.3625 57.343C64.3678 57.3899 64.4511 60.1399 66.3053 61.6816C67.4459 62.6399 69.0553 62.9628 71.0917 62.6451C71.4771 62.5878 71.8417 62.8482 71.9042 63.2389C71.9615 63.6243 71.6959 63.9889 71.3105 64.0514C70.7271 64.1399 70.175 64.1868 69.6438 64.1868C68.9042 64.1868 68.2219 64.093 67.5865 63.9159L67.2844 86.692H80.0396L80.1178 64.1347C79.5292 64.2076 78.9042 64.2597 78.1959 64.2597C77.9407 64.2597 77.675 64.2545 77.399 64.2441C77.0084 64.2284 76.7011 63.9003 76.7167 63.5045C76.7323 63.1139 77.05 62.7962 77.4563 62.8222C84.1282 63.0618 84.4198 60.1555 84.9042 55.3118C85.149 52.8482 85.425 50.0566 86.623 47.1659C86.8209 46.6659 86.7948 46.2493 86.5448 45.9524Z" fill="currentColor"/>
<path d="M69.5135 34.0097C69.4406 33.4211 69.1489 33.0722 68.7426 33.0878C68.3572 33.1086 67.9718 33.4784 67.9718 34.1347C67.9718 34.1815 68.3728 41.7388 68.6281 45.369C69.1489 45.1503 69.6749 44.9628 70.2062 44.8065C70.201 44.7805 70.1906 44.7597 70.1853 44.7336C70.1853 44.7076 70.1801 44.6867 70.1801 44.6555L69.5135 34.0097Z" fill="currentColor"/>
<path d="M49.8103 16.593C49.1697 16.5513 48.6801 17.0878 48.5708 17.9992L48.1281 31.9315C48.8937 32.1659 49.6489 32.4471 50.3885 32.7805C50.6228 28.6503 51.0187 18.2232 51.0187 18.1086C51.0187 17.1711 50.4145 16.6294 49.8103 16.593Z" fill="currentColor"/>
<path d="M48.602 56.2753C47.9249 56.2753 47.2114 56.218 46.4666 56.1034C46.0812 56.0409 45.8155 55.6764 45.8728 55.2909C45.9301 54.9003 46.2947 54.6347 46.6853 54.6972C49.4301 55.1191 51.6072 54.6764 53.1489 53.3795C55.5916 51.3326 55.7009 47.7753 55.7009 47.7389L57.1124 24.7909C57.1072 23.2076 56.5812 22.4472 56.0551 22.4211C55.5812 22.4211 54.9457 22.9889 54.8468 23.9836L53.7166 34.8691C53.8937 35.0253 54.0655 35.1868 54.2322 35.3534C54.5134 35.6295 54.5134 36.0826 54.2322 36.3586C54.0968 36.4993 53.9145 36.567 53.7322 36.567C53.5499 36.567 53.3676 36.4993 53.227 36.3586C48.5343 31.6659 38.5395 32.1607 38.4353 32.1659C38.0551 32.1816 37.7114 31.8899 37.6905 31.4941C37.6645 31.1034 37.9666 30.7701 38.3572 30.7493C38.3676 30.7441 38.3832 30.7441 38.3989 30.7441V18.6555C38.3989 17.192 37.4614 16.4055 36.5864 16.4055C36.2478 16.4055 35.9405 16.5253 35.727 16.7441C35.4666 17.0149 35.3312 17.4264 35.3312 17.9472L35.5551 39.2701C35.5551 39.317 35.5499 39.3639 35.5395 39.4107C35.352 40.4211 34.8364 41.0201 34.2582 41.343C34.5187 41.5461 34.8103 41.7389 35.1228 41.942C36.6124 42.9107 38.4614 44.1139 38.0864 48.192C38.0499 48.5826 37.7009 48.8691 37.3103 48.8326C36.9197 48.7961 36.6332 48.4524 36.6697 48.0618C36.9666 44.8378 35.753 44.0461 34.3468 43.1347C33.6384 42.6711 32.8728 42.1659 32.3155 41.343C32.3103 41.3378 32.3051 41.3274 32.2999 41.3222C32.003 40.8795 31.7634 40.3534 31.6332 39.6816C31.0759 36.0097 30.6072 34.2389 30.602 34.218C30.2739 33.2493 29.5134 32.567 28.5239 32.3847C27.6801 32.2284 26.8207 32.4784 26.3884 33.0045C25.9353 33.5514 26.0759 34.2597 26.2739 34.7545C27.8155 38.4159 28.1801 41.9784 28.4978 45.1243C29.1384 51.442 29.5134 55.2493 38.4301 54.9264C38.8259 54.8795 39.1541 55.218 39.1697 55.6086C39.1853 55.9993 38.878 56.3326 38.4822 56.343C38.1384 56.3586 37.7999 56.3639 37.4718 56.3639C36.4562 56.3639 35.5551 56.3014 34.7374 56.1816L34.8416 86.692H51.8989L51.503 55.8534C50.6176 56.1295 49.6541 56.2753 48.602 56.2753Z" fill="currentColor"/>
<path d="M62.0135 39.7076C61.8156 38.2024 62.7531 37.2024 63.7895 37.0253C64.7114 36.8638 65.8468 37.3638 66.1593 38.8222L67.2374 45.8534C66.9822 42.3899 66.5551 34.2544 66.5499 34.1763C66.5447 32.6138 67.6333 31.7284 68.6541 31.6659C69.6593 31.6242 70.7374 32.2701 70.9301 33.8794L71.5916 44.4472C71.7218 41.593 71.6228 32.4992 71.5812 30.5721C71.5812 28.6242 72.9301 27.5826 74.1958 27.5826C74.8156 27.5826 75.3833 27.8169 75.7999 28.2492C76.1072 28.5722 76.477 29.1607 76.477 30.119C76.477 30.5617 76.4458 31.6399 76.4041 33.0149C76.2999 36.4211 76.1281 42.119 76.2895 43.9315L77.1958 34.5149C77.2947 33.2336 77.9458 32.1815 78.9406 31.7076C79.701 31.3482 80.5239 31.3899 81.1489 31.8221C81.5343 32.0878 82.1645 32.7336 82.0551 34.0826L81.5708 41.1815C90.9353 25.2805 86.3676 10.4732 76.5291 3.71798C68.1697 -2.0216 54.9718 -2.16744 45.5031 10.8586C46.0864 11.468 46.4874 12.3534 46.4874 13.4992C46.4458 15.369 46.3312 18.218 46.2114 21.2388C46.0656 24.994 45.9093 28.8586 45.8728 31.3534C46.1541 31.4107 46.4353 31.4784 46.7166 31.5461L47.1541 17.8899C47.3989 15.8899 48.7166 15.0878 49.8989 15.1711C51.1333 15.244 52.4406 16.3117 52.4406 18.1346C52.4249 18.6607 51.9978 29.9211 51.7687 33.4888C51.977 33.6138 52.1853 33.7388 52.3885 33.869L53.4301 23.843C53.602 22.1555 54.7478 20.9263 56.1281 21.0044C57.2895 21.0617 58.5291 22.0982 58.5291 24.8378L57.1228 47.7961C57.1176 47.9367 57.0083 51.9888 54.0708 54.4576C53.7114 54.7649 53.326 55.0305 52.9145 55.2544L53.0656 67.1555C56.8624 64.9211 60.3885 62.593 63.5708 60.218C62.9822 58.7753 62.9458 57.4784 62.9406 57.3951L62.0135 39.7076Z" fill="currentColor"/>
</svg>
