<?xml version="1.0" encoding="UTF-8" standalone="no"?>
<svg
   width="50.726746"
   zoomAndPan="magnify"
   viewBox="0 0 38.045059 35.261753"
   height="47.015671"
   preserveAspectRatio="xMidYMid"
   version="1.0"
   id="svg2293"
   sodipodi:docname="programs.svg"
   xmlns:inkscape="http://www.inkscape.org/namespaces/inkscape"
   xmlns:sodipodi="http://sodipodi.sourceforge.net/DTD/sodipodi-0.dtd"
   xmlns="http://www.w3.org/2000/svg"
   xmlns:svg="http://www.w3.org/2000/svg">
  <sodipodi:namedview
     id="namedview2293"
     pagecolor="#ffffff"
     bordercolor="#000000"
     borderopacity="0.25"
     inkscape:showpageshadow="2"
     inkscape:pageopacity="0.0"
     inkscape:pagecheckerboard="0"
     inkscape:deskcolor="#d1d1d1"
     inkscape:export-bgcolor="#ffffff00">
    <inkscape:page
       x="0"
       y="0"
       width="38.045059"
       height="35.261753"
       id="page2"
       margin="0"
       bleed="0" />
  </sodipodi:namedview>
  <defs
     id="defs30">
    <clipPath
       id="510f0685c9">
      <path
         d="m 545,168 h 18.79687 v 21.23828 H 545 Z m 0,0"
         clip-rule="nonzero"
         id="path10" />
    </clipPath>
    <clipPath
       id="3af993783a">
      <path
         d="M 525.30859,168 H 544 v 21.23828 h -18.69141 z m 0,0"
         clip-rule="nonzero"
         id="path11" />
    </clipPath>
  </defs>
  <g
     clip-path="url(#510f0685c9)"
     id="g44"
     transform="translate(-525.41333,-153.77341)">
    <path
       fill="#024f7b"
       d="m 562.96875,168.57031 c -0.39063,-0.39062 -0.92188,-0.55859 -1.45703,-0.46875 -0.54297,0.0898 -0.99219,0.41406 -1.23828,0.90235 l -2.46485,4.93359 c -0.14453,0.29687 -0.34375,0.55859 -0.61328,0.83984 -0.0469,0.0547 -0.082,0.10938 -0.1289,0.16407 -1.15625,-0.92188 -2.80079,-1.08594 -4.1836,-0.3086 -0.96484,0.8125 -2.32031,1.5625 -4.07422,2.25 -1.09375,0.60547 -1.83203,1.70703 -1.98828,2.94531 l -0.60547,4.84375 h -0.92187 v 4.36329 h 10.47265 v -4.36329 h -0.34375 l 4.98047,-5.68359 c 0.3711,-0.42578 0.64063,-0.91406 0.80469,-1.45703 l 2.18359,-7.28906 c 0.17188,-0.59766 0.0117,-1.23828 -0.42187,-1.67188 z m -8.07813,19.58985 h -8.73046 v -2.6211 h 8.73046 z m 7.66016,-18.17188 -2.1875,7.28125 c -0.125,0.42578 -0.33203,0.80469 -0.62109,1.12891 l -5.47657,6.26172 h -7.15625 l 0.58985,-4.73438 c 0.11719,-0.96484 0.69531,-1.81641 1.48828,-2.26562 1.78906,-0.69532 3.22656,-1.5 4.20312,-2.33204 1.01172,-0.55859 2.26563,-0.43359 3.15235,0.28125 -1.34766,1.67969 -2.6836,2.95313 -4.06641,3.88282 l -0.35937,0.24609 0.48828,0.72266 0.35937,-0.2461 c 1.69922,-1.1289 3.31641,-2.74609 4.89844,-4.88672 0.29688,-0.29687 0.54297,-0.64062 0.73047,-1.01953 l 2.46875,-4.93359 c 0.11719,-0.23438 0.33203,-0.39844 0.59375,-0.43359 0.26172,-0.0352 0.51562,0.043 0.69531,0.22656 0.21094,0.22265 0.28125,0.53125 0.19922,0.82031 z m 0,0"
       fill-opacity="1"
       fill-rule="nonzero"
       id="path43" />
  </g>
  <g
     clip-path="url(#3af993783a)"
     id="g45"
     transform="translate(-525.41333,-153.77341)">
    <path
       fill="#024f7b"
       d="m 542.03125,179.82812 c -0.15234,-1.23828 -0.89453,-2.33984 -2.03906,-2.97265 -1.71094,-0.66797 -3.05469,-1.41797 -4.09375,-2.27735 -1.32032,-0.73046 -2.95703,-0.57031 -4.11328,0.36329 -0.0508,-0.0742 -0.10547,-0.13672 -0.16016,-0.21094 -0.23438,-0.23438 -0.42578,-0.4961 -0.57031,-0.79297 l -2.46485,-4.93359 c -0.24609,-0.48829 -0.69922,-0.82422 -1.23047,-0.90235 -0.54296,-0.0898 -1.07421,0.0781 -1.45312,0.46875 -0.43359,0.4336 -0.59766,1.07422 -0.42578,1.67188 l 2.17578,7.28125 c 0.16406,0.54297 0.43359,1.03125 0.80469,1.45703 l 4.98047,5.6914 h -0.36329 v 4.36329 h 10.47266 v -4.36329 h -0.91406 z m -12.91016,-1.41796 c -0.28906,-0.33594 -0.49609,-0.71485 -0.625,-1.12891 l -2.19531,-7.29297 c -0.0781,-0.28906 -0.008,-0.59766 0.19922,-0.80469 0.19141,-0.1875 0.44531,-0.26953 0.70703,-0.22656 0.26172,0.0469 0.47656,0.19922 0.59375,0.43359 l 2.46875,4.9336 c 0.1875,0.3789 0.43359,0.72265 0.69531,0.97656 1.625,2.1875 3.24219,3.80469 4.94141,4.93359 l 0.36328,0.24219 0.48828,-0.72265 -0.36328,-0.24219 c -1.38281,-0.92188 -2.71094,-2.1875 -4.06641,-3.88672 0.88672,-0.71094 2.13282,-0.84766 3.08985,-0.33203 1.03906,0.875 2.47656,1.67969 4.21875,2.34765 0.85156,0.46875 1.42969,1.32813 1.54687,2.29688 l 0.58594,4.73437 h -7.15625 z m 13.55469,9.75 h -8.71875 v -2.6211 h 8.72656 v 2.6211 z m 0,0"
       fill-opacity="1"
       fill-rule="nonzero"
       id="path44" />
  </g>
  <path
     fill="#024f7b"
     d="m 30.035889,13.351593 c 3.04687,-3.04688 3.04687,-8.0156296 0,-11.0585896 -3.03516,-3.03516008 -7.97656,-3.04688008 -11.02344,-0.0391 -3.05078,-3.01562008 -7.98437,-3.00781008 -11.0234396,0.0391 -3.04297,3.04296 -3.04297,8.0117096 0,11.0585896 l 9.6132796,9.62109 c 0.39063,0.39063 0.89454,0.57813 1.41016,0.57813 0.51563,0 1.02344,-0.1875 1.41016,-0.57813 z m -11.81641,9.00781 -9.6249996,-9.62109 c -1.30859,-1.3125 -2.03125,-3.0546896 -2.03125,-4.9179696 0,-1.85938 0.72266,-3.60547 2.03125,-4.91406 1.35547,-1.35547 3.1367196,-2.03125008 4.9179696,-2.03125008 1.77734,0 3.55859,0.67578008 4.91406,2.03125008 0.32422,0.32422 0.84766,0.32422 1.16407,0 2.71093,-2.71094008 7.12109,-2.71094008 9.83203,0 1.30859,1.30859 2.03125,3.05468 2.03125,4.91406 0,1.86328 -0.72266,3.6054696 -2.03125,4.9179696 l -9.6211,9.62109 c -0.42578,0.41406 -1.16015,0.41406 -1.58203,0 z m 0,0"
     fill-opacity="1"
     fill-rule="nonzero"
     id="path45" />
  <path
     fill="#024f7b"
     d="m 20.758539,6.4648734 h -3.48828 v 2.62109 h -2.62109 v 3.4882896 h 2.62109 v 2.62109 h 3.48828 v -2.62109 h 2.6211 V 9.0859634 h -2.6211 z m 1.74219,3.48828 v 1.7460996 h -2.62109 v 2.61718 h -1.74219 v -2.61718 h -2.62109 V 9.9531534 h 2.62109 v -2.62109 h 1.74219 v 2.62109 z m 0,0"
     fill-opacity="1"
     fill-rule="nonzero"
     id="path46" />
</svg>
