<svg width="139" height="88" viewBox="0 0 139 88" fill="none" xmlns="http://www.w3.org/2000/svg">
<mask id="mask0_24_8302" style="mask-type:luminance" maskUnits="userSpaceOnUse" x="0" y="0" width="139" height="88">
<path d="M0 0H139V88H0V0Z" fill="white"/>
</mask>
<g mask="url(#mask0_24_8302)">
<path d="M138.302 36.6614C137.464 34.6406 135.146 33.6823 133.13 34.5208C119.734 40.0729 108.974 40.4114 100.651 38.5521C100.453 38.4843 100.25 38.4479 100.042 38.4166C85.8437 35.0156 78.9687 25.2135 78.5 24.526C77.2865 22.7083 74.8281 22.2239 73.0208 23.4271C71.1979 24.6406 70.7031 27.0989 71.9167 28.9166C72.0312 29.0937 78.9062 39.0729 92.7812 44.3073C90.9896 49.3958 87.9531 59.1614 87.1354 68.9583C87.1354 68.9583 87.9583 69.1198 89.349 69.3437C88.6719 76.0312 88.4948 81.125 88.4844 81.6041C88.4167 83.7916 90.1354 85.6146 92.3177 85.6823C92.3594 85.6823 92.401 85.6875 92.4427 85.6875C94.5729 85.6875 96.3281 83.9948 96.3958 81.8541C96.401 81.7396 96.5625 76.7969 97.2083 70.3177C99.4323 70.5156 101.854 70.6666 104.312 70.6875C109.01 81.375 115.328 86.6875 115.76 87.0416C116.495 87.6406 117.38 87.9323 118.255 87.9323C119.406 87.9323 120.542 87.4375 121.328 86.4739C122.708 84.7812 122.453 82.2864 120.76 80.9062C120.682 80.8437 116.521 77.3281 112.812 70.1406C115 69.7864 117.021 69.25 118.708 68.4531C118.708 68.4531 114.786 56.4583 114.521 47.2656C120.984 46.7708 128.193 45.1354 136.167 41.8333C138.187 40.9948 139.141 38.6771 138.302 36.6614ZM66.2656 23.4427C64.4583 22.2291 62.0052 22.7135 60.7812 24.5208C60.3385 25.1771 53.4635 35.0104 39.2344 38.4218C39.026 38.4479 38.8229 38.4896 38.6198 38.5521C30.3021 40.4114 19.5417 40.0729 6.14583 34.5208C4.12499 33.6823 1.81249 34.6406 0.973951 36.6614C0.140618 38.6771 1.09374 40.9948 3.11458 41.8333C12.8854 45.8802 21.5156 47.4531 29.026 47.4531C29.1146 47.4531 29.1927 47.4375 29.2812 47.4375C29.776 50.6198 30.3281 55.3854 30.2292 60.4166C26.5729 74.0104 18.9531 80.5521 18.5052 80.9219C16.8229 82.2969 16.5729 84.7812 17.9531 86.4739C18.7344 87.4375 19.8698 87.9323 21.0208 87.9323C21.901 87.9323 22.7812 87.6406 23.5208 87.0416C24.026 86.6302 32.724 79.3073 37.2969 64.3802C38.6042 64.125 39.9635 63.9323 41.3073 63.8437C42.5937 73.2239 42.8802 81.7031 42.8854 81.8541C42.9531 83.9948 44.7083 85.6875 46.8385 85.6875C46.8802 85.6875 46.9219 85.6823 46.9635 85.6823C49.1458 85.6198 50.8594 83.7916 50.7969 81.6094C50.776 80.9844 50.5 72.6719 49.1979 63.1562C49.224 58.8177 49.1875 50.2343 48.6406 43.4479C61.0781 38.0521 67.2552 29.0833 67.3646 28.9166C68.5677 27.0989 68.0781 24.6562 66.2656 23.4427ZM34.349 37.3073C42.5521 37.3073 49.2031 30.6614 49.2031 22.4583C49.2031 14.2552 42.5521 7.60935 34.349 7.60935C26.1458 7.60935 19.5 14.2552 19.5 22.4583C19.5 30.6614 26.151 37.3073 34.349 37.3073ZM95.75 11.1666C96.0417 11.6771 95.9687 12.3281 95.5885 12.776C94.026 14.5833 92.8958 16.7864 92.3542 19.3125C90.5729 27.6562 96.1719 35.8593 104.76 37.1146C112.427 38.2396 119.807 33.0677 121.411 25.4843C121.937 22.9896 121.802 20.526 121.12 18.2448C120.953 17.6875 121.156 17.0729 121.625 16.7239C125.854 13.5364 121.87 28.3333 137.031 24.9791C127.677 22.7916 132.318 14.2343 131.167 10.776C130.068 7.54164 124.297 4.66664 119.12 12.8854C118.932 13.1875 118.516 13.2135 118.292 12.9375C116.24 10.4427 113.396 8.62497 109.99 7.8906C106.609 7.17185 103.25 7.66143 100.38 9.08331C100.062 9.23956 99.6875 9.04685 99.6406 8.69789C98.2552 -0.906279 91.8073 -0.640653 89.4844 1.86456C87.0156 4.54685 87.75 14.25 78.3229 12.4271C90.75 21.6771 93.1823 6.59372 95.75 11.1666Z" fill="currentColor"/>
</g>
</svg>
