<?xml version="1.0" encoding="UTF-8" standalone="no"?>
<svg
   width="238.88019"
   zoomAndPan="magnify"
   viewBox="0 0 179.16014 179.16016"
   height="238.88022"
   preserveAspectRatio="xMidYMid"
   version="1.0"
   id="svg160"
   sodipodi:docname="20.svg"
   xmlns:inkscape="http://www.inkscape.org/namespaces/inkscape"
   xmlns:sodipodi="http://sodipodi.sourceforge.net/DTD/sodipodi-0.dtd"
   xmlns="http://www.w3.org/2000/svg"
   xmlns:svg="http://www.w3.org/2000/svg">
  <sodipodi:namedview
     id="namedview160"
     pagecolor="#ffffff"
     bordercolor="#000000"
     borderopacity="0.25"
     inkscape:showpageshadow="2"
     inkscape:pageopacity="0.0"
     inkscape:pagecheckerboard="0"
     inkscape:deskcolor="#d1d1d1">
    <inkscape:page
       x="0"
       y="3.6206885e-15"
       width="179.16014"
       height="179.16016"
       id="page2"
       margin="0"
       bleed="0" />
  </sodipodi:namedview>
  <defs
     id="defs8">
    <clipPath
       id="4c9bf19516">
      <path
         d="m 258.54297,90.742188 h 179.25 V 269.99219 h -179.25 z m 0,0"
         clip-rule="nonzero"
         id="path3" />
    </clipPath>
  </defs>
  <g
     clip-path="url(#4c9bf19516)"
     id="g98"
     transform="translate(-258.55078,-90.730469)">
    <path
       fill="#404040"
       d="m 437.71094,242.66406 c 0,15.03906 -12.1875,27.22656 -27.22657,27.22656 H 285.77344 c -15.03516,0 -27.22266,-12.1875 -27.22266,-27.22656 V 117.95313 c 0,-15.03516 12.1875,-27.222661 27.22266,-27.222661 h 124.71484 c 15.03516,0 27.22266,12.187501 27.22266,27.222661 z m 0,0"
       fill-opacity="1"
       fill-rule="nonzero"
       id="path98"
       style="fill:#0e347d;fill-opacity:1"
       inkscape:export-filename="..\..\UndoodWeb\public\linkedin-logo.svg"
       inkscape:export-xdpi="96"
       inkscape:export-ydpi="96" />
  </g>
  <path
     fill="#ffffff"
     d="m 70.843749,63.917971 c 0,0.8789 -0.0859,1.75 -0.25781,2.61328 -0.17188,0.85937 -0.42578,1.69922 -0.76172,2.50781 -0.33594,0.8125 -0.74609,1.58594 -1.23438,2.31641 -0.48828,0.73047 -1.04296,1.40625 -1.66406,2.02734 -0.625,0.62109 -1.30078,1.17578 -2.03125,1.66406 -0.73047,0.48828 -1.5,0.90235 -2.3125,1.23828 -0.8125,0.33594 -1.64844,0.58985 -2.51172,0.76172 -0.85937,0.17188 -1.73047,0.25782 -2.60937,0.25782 -0.87891,0 -1.75,-0.0859 -2.61328,-0.25782 -0.85938,-0.17187 -1.69922,-0.42578 -2.50782,-0.76172 -0.8125,-0.33593 -1.58593,-0.75 -2.3164,-1.23828 -0.73047,-0.48828 -1.40625,-1.04297 -2.02735,-1.66406 -0.62109,-0.62109 -1.17578,-1.29687 -1.66406,-2.02734 -0.48828,-0.73047 -0.90234,-1.50391 -1.23828,-2.31641 -0.33594,-0.80859 -0.58984,-1.64844 -0.76172,-2.50781 -0.17187,-0.86328 -0.2539,-1.73438 -0.2539,-2.61328 0,-0.87891 0.082,-1.75 0.2539,-2.60938 0.17188,-0.86328 0.42578,-1.69922 0.76172,-2.51172 0.33594,-0.8125 0.75,-1.58203 1.23828,-2.3125 0.48828,-0.73047 1.04297,-1.40625 1.66406,-2.03125 0.6211,-0.62109 1.29688,-1.17578 2.02735,-1.66406 0.73047,-0.48828 1.5039,-0.89844 2.3164,-1.23437 0.8086,-0.33594 1.64844,-0.58985 2.50782,-0.76172 0.86328,-0.17188 1.73437,-0.25782 2.61328,-0.25782 0.8789,0 1.75,0.0859 2.60937,0.25782 0.86328,0.17187 1.69922,0.42578 2.51172,0.76172 0.8125,0.33593 1.58203,0.74609 2.3125,1.23437 0.73047,0.48828 1.40625,1.04297 2.03125,1.66406 0.6211,0.625 1.17578,1.30078 1.66406,2.03125 0.48829,0.73047 0.89844,1.5 1.23438,2.3125 0.33594,0.8125 0.58984,1.64844 0.76172,2.51172 0.17187,0.85938 0.25781,1.73047 0.25781,2.60938 z m 0,0"
     fill-opacity="1"
     fill-rule="nonzero"
     id="path99" />
  <path
     fill="#ffffff"
     d="m 45.921879,87.171871 h 22.99218 v 73.964849 h -22.99218 z m 0,0"
     fill-opacity="1"
     fill-rule="nonzero"
     id="path100" />
  <path
     fill="#ffffff"
     d="M 83.374999,87.171871 H 105.26172 V 161.13672 H 83.374999 Z m 0,0"
     fill-opacity="1"
     fill-rule="nonzero"
     id="path101" />
  <path
     fill="#ffffff"
     d="m 84.324219,126.55469 h 21.882811 v 34.58203 H 84.324219 Z m 0,0"
     fill-opacity="1"
     fill-rule="nonzero"
     id="path102" />
  <path
     fill="#ffffff"
     d="m 106.20703,126.55469 c 0,0 -0.34375,-9.59766 2.1875,-14.58594 0,0 2.53125,-6.14063 10.48438,-6.17969 0,0 9.32812,-1.62891 12.0039,7.62891 0,0 1.01172,5.13281 1.01172,7.30078 0,2.17187 0.0703,40.42187 0.0703,40.42187 h 22.92189 v -42.37109 c 0,0 1.66406,-23.933589 -12.70313,-30.492189 0,0 -23.61718,-10.60156 -36.4375,8.8711 0,0 -2.79687,1.92578 -3.18359,-3.47266 -0.38672,-5.39844 -3.664061,8.292969 -3.761721,8.582029 -0.0937,0.28906 3.761721,27.28516 3.761721,27.28516 z m 0,0"
     fill-opacity="1"
     fill-rule="nonzero"
     id="path103" />
</svg>
