<svg width="87" height="96" viewBox="0 0 87 96" fill="none" xmlns="http://www.w3.org/2000/svg">
<path d="M32.16 81.42C32.21 82.37 32.27 83.32 32.32 84.3C31.75 84.22 31.34 83.91 30.97 83.59C29.02 81.9 27.08 80.19 25.38 78.24C23 75.52 21.74 72.26 20.89 68.8C20.84 68.62 20.8 68.43 20.76 68.25C20.42 66.82 20.42 66.71 18.96 66.7C12.53 66.67 7.51001 63.65 3.07001 59.34C2.20001 58.49 1.34001 57.62 0.670013 56.6C0.400013 56.19 0.110006 55.77 0.100006 55.21C1.42001 55.29 2.71001 55.37 4.01001 55.45C5.90001 55.56 7.78 55.34 9.66 55.17C9.98 55.14 10.46 55.13 10.54 54.83C10.64 54.5 10.18 54.32 9.92999 54.12C9.57999 53.85 9.20001 53.62 8.85001 53.36C8.44001 53.06 8.09001 52.7 7.85001 52.24C7.55001 51.66 7.57001 51.63 8.20001 51.64C10.48 51.67 12.72 51.39 14.93 50.86C15.05 50.83 15.16 50.78 15.3 50.74C14.42 48.49 13.7 46.22 13.29 43.86C11.31 32.41 13.99 22.16 21.53 13.32C27.3 6.56001 34.7 2.53001 43.46 1.07001C62.81 -2.14999 81.44 10.69 85.32 29.89C88.77 46.94 79.54 64.15 63.38 70.79C61.97 72.05 60.1 71.98 58.43 72.47C57.42 72.77 56.68 73.29 56.36 74.36C55.85 76.09 54.88 77.58 53.73 78.96C52.49 80.44 51.33 81.98 50.25 83.58C48.29 86.49 47.61 89.75 47.59 93.19C47.59 93.76 47.58 94.32 47.62 94.89C47.64 95.3 47.51 95.31 47.2 95.15C45.92 94.5 44.78 93.64 43.65 92.78C39.4 89.52 35.51 85.9 32.38 81.52C32.35 81.47 32.32 81.42 32.28 81.37C32.25 81.39 32.21 81.4 32.16 81.42ZM36.48 52.44C36.52 51.85 36.33 51.56 35.66 51.67C34.54 51.86 33.42 51.97 32.3 52.12C30.28 52.38 28.26 52.54 26.22 52.19C24.86 51.96 23.61 51.44 22.36 50.91C21.83 50.68 21.37 50.71 20.88 51.02C19.64 51.82 18.27 52.34 16.84 52.69C16.05 52.88 15.27 53.09 14.48 53.3C14.18 53.38 13.68 53.34 13.66 53.68C13.64 54.01 14.06 54.24 14.38 54.39C14.64 54.52 14.93 54.58 15.2 54.69C15.49 54.8 15.78 54.92 16.06 55.05C16.41 55.21 16.47 55.35 16.08 55.57C15.05 56.14 13.99 56.59 12.84 56.84C10.74 57.29 8.58999 57.16 6.45999 57.34C6.23999 57.36 5.93001 57.25 5.82001 57.47C5.70001 57.72 5.95001 57.93 6.10001 58.12C6.87001 59.11 7.88001 59.82 8.89001 60.53C12.37 62.99 16.18 64.38 20.49 64.13C21.18 64.09 21.87 64.06 22.56 64C22.92 63.97 23.04 64.08 23.02 64.45C23 65.12 22.99 65.79 23.02 66.46C23.05 67.06 23.13 67.66 23.52 68.17C23.55 68.48 23.49 68.78 23.57 69.1C24.27 71.83 25.61 74.23 27.3 76.45C27.72 77 28.18 77.52 28.79 77.87C29.08 78.04 29.33 78.14 29.32 77.61C29.31 77.15 29.41 76.69 29.42 76.23C29.47 74.18 30.46 72.48 31.38 70.69C31.68 71.24 31.9 71.75 31.98 72.32C31.92 72.96 32.12 73.56 32.27 74.16C33.16 77.64 34.95 80.66 37.12 83.48C38.67 85.5 40.39 87.36 42.53 88.78C43.3 89.29 43.36 89.27 43.84 88.45C44.42 87.45 44.79 86.37 45.1 85.27C45.75 82.98 46.11 80.67 45.82 78.28C45.65 76.87 45.27 75.51 44.96 74.13C44.85 73.63 45 73.53 45.45 73.63C46.51 73.85 47.34 74.39 47.85 75.36C48.17 75.97 48.47 76.59 48.8 77.19C49.16 77.84 49.19 77.83 49.56 77.21C51.03 74.78 51.58 72.06 51.96 69.3C52.21 67.49 52.24 65.66 52.27 63.84C52.27 63.45 52.35 63.17 52.83 63.31C52.88 63.94 53.16 64.48 53.5 64.98C54.77 66.85 56.48 68.19 58.56 69.06C58.69 69.12 58.84 69.27 59.03 69.12C58.78 68.28 58.4 67.49 57.98 66.72C57.41 65.67 57.1 64.56 56.97 63.38C56.87 62.48 56.86 61.58 56.86 60.68C56.86 60.32 56.67 59.76 56.97 59.64C57.37 59.48 57.71 59.94 57.97 60.26C58.46 60.85 59.07 61.04 59.81 61.03C60.19 61.02 60.28 60.88 60.24 60.54C60.14 59.71 60.08 58.87 59.95 58.04C59.6 55.67 59.37 53.3 59.9 50.91C60.21 49.5 60.75 48.2 61.45 46.95C61.75 46.4 61.72 46.04 61.13 45.75C60.83 45.6 60.58 45.36 60.32 45.16C60.15 45.03 60.12 44.84 60.17 44.65C60.22 44.45 60.42 44.54 60.55 44.53C61.45 44.48 62.35 44.36 63.22 44.14C66.76 43.26 69.45 41.25 71.3 38.11C71.86 37.16 72.25 36.14 72.06 35C72 34.66 72 34.17 71.67 34.08C71.39 34 71.11 34.39 70.89 34.65C69.97 35.73 68.85 36.51 67.54 37.02C65.72 37.73 63.94 37.64 62.21 36.7C61.86 36.51 61.68 36.25 61.64 35.81C61.51 34.31 61.97 32.95 62.6 31.64C63.24 30.3 63.93 28.98 64.39 27.56C64.64 26.78 64.89 26 64.85 25.17C64.8 24.39 64.43 23.92 63.68 23.74C62.84 23.54 62.02 23.66 61.2 23.91C60.11 24.12 59.69 23.44 59.4 22.57C59.38 22.51 59.33 22.46 59.32 22.4C59.2 21.99 59.05 21.94 58.69 22.23C56.7 23.88 54.7 25.5 52.7 27.13C52.2 27.53 51.71 27.94 51.11 28.43C52.84 28.91 53.98 27.55 55.49 27.36C55.29 27.89 55.01 28.29 54.7 28.65C54.02 29.45 53.29 30.21 52.63 31.02C51.92 31.89 51.03 32.4 49.92 32.58C49.15 32.71 48.41 32.94 47.98 33.69C46.36 34.1 45.3 35.22 44.43 36.56C44.04 36.51 43.97 36.27 44.07 35.94C44.2 35.5 44.29 35.05 44.46 34.63C44.81 33.74 44.84 32.83 44.6 31.93C44.47 31.42 44.44 30.98 44.83 30.58C45.02 30.56 45.2 30.54 45.39 30.52C46.46 30.41 47.39 30.04 48 29.1C48.26 28.7 48.44 28.25 48.15 27.81C47.86 27.36 47.37 27.37 46.9 27.46C46.65 27.51 46.4 27.56 46.17 27.66C44.07 28.55 42.25 29.82 40.8 31.6C40.38 31.73 40.09 32.04 39.81 32.35C39.11 33.13 38.42 33.92 37.75 34.73C34.42 38.74 30.22 41.33 25.13 42.45C23.39 42.83 21.61 42.98 19.83 43.09C19.34 43.12 19.34 43.31 19.49 43.68C19.76 44.32 20.2 44.82 20.73 45.24C23.97 47.76 27.65 49.12 31.75 49.3C33.57 49.38 35.31 48.84 37.05 48.36C38.54 47.95 38.52 47.96 38.65 49.48C38.83 51.56 39.55 53.42 41 54.97C42.23 56.29 43.68 57.22 45.4 57.77C45.79 57.89 46.23 57.97 46.48 58.36C46.65 58.63 46.64 58.77 46.26 58.77C45.48 58.77 44.71 58.7 43.94 58.59C41.85 58.29 40.2 57.22 38.78 55.7C38.2 55.07 37.7 54.36 37 53.84C36.85 53.35 36.74 52.87 36.48 52.44ZM48.79 2.4C47.17 2.31 45.01 2.57 42.87 2.97C38.8 3.72 34.98 5.17001 31.42 7.29001C27.5 9.62001 24.17 12.61 21.42 16.24C18.9 19.56 17.05 23.22 15.86 27.22C15.09 29.81 14.61 32.47 14.47 35.16C14.32 38.07 14.51 40.97 15.08 43.84C15.48 45.81 16.03 47.74 16.76 49.61C16.84 49.81 16.93 50.13 17.22 50.02C18.21 49.62 19.25 49.31 19.93 48.4C20.14 48.11 20.17 47.85 19.91 47.56C19.43 47.04 18.97 46.49 18.5 45.95C17.4 44.66 16.49 43.29 16.19 41.56C16.08 40.91 16.24 40.82 16.82 40.83C18.81 40.87 20.8 40.75 22.78 40.56C25.02 40.34 27.08 39.57 29.03 38.43C30.87 37.36 32.64 36.23 34.1 34.65C36.06 32.53 38.06 30.44 40.15 28.43C42.21 26.44 44.53 25 47.46 24.76C48.19 24.7 49.04 24.48 49.57 25.19C49.97 25.72 50.28 25.62 50.72 25.33C52.18 24.37 53.51 23.26 54.81 22.1C56.67 20.44 58.51 18.75 60.35 17.08C60.8 16.67 61.32 16.34 61.94 16.56C63.01 16.94 64.05 17.4 64.85 18.25C66.91 20.43 67.66 22.98 67.07 25.94C66.61 28.28 65.9 30.52 64.74 32.61C64.46 33.12 64.25 33.68 64.12 34.25C64.07 34.46 63.98 34.77 64.34 34.78C65.71 34.83 67.11 34.91 68.24 33.96C69.38 33.01 70.55 32.09 71.4 30.83C71.84 30.17 72.07 30.15 72.54 30.59C75.33 33.18 75.83 36.67 73.94 39.82C72.45 42.29 70.37 44.25 68.03 45.92C67.11 46.58 66.13 47.15 65.28 47.9C63.84 49.16 63.2 50.81 62.76 52.63C62.14 55.13 62.12 57.58 62.84 60.05C63.1 60.93 63.47 61.79 63.47 62.73C63.47 63.6 63.14 63.98 62.28 64C61.63 64.02 60.98 64.06 60.34 63.91C59.77 63.79 59.58 63.98 59.56 64.54C59.53 65.14 59.69 65.7 59.87 66.26C60.19 67.27 60.96 68.05 61.37 69.01C61.55 69.44 61.8 69.54 62.25 69.36C63.94 68.67 65.58 67.87 67.16 66.95C70.76 64.85 73.87 62.17 76.51 58.95C78.78 56.18 80.55 53.1 81.89 49.77C83.27 46.34 84.04 42.78 84.25 39.11C84.39 36.73 84.29 34.35 83.93 31.97C83.42 28.61 82.46 25.4 81.02 22.34C78.95 17.97 76.09 14.19 72.44 11C69.9 8.78 67.11 6.95999 64.04 5.54999C59.36 3.43999 54.48 2.38 48.79 2.4Z" fill="#070708"/>
<path d="M48.79 2.4C54.48 2.38 59.36 3.43999 64.01 5.57999C67.08 6.98999 69.86 8.81 72.41 11.03C76.06 14.22 78.92 18 80.99 22.37C82.44 25.43 83.4 28.64 83.9 32C84.26 34.38 84.36 36.76 84.22 39.14C84.01 42.81 83.24 46.38 81.86 49.8C80.52 53.13 78.75 56.21 76.48 58.98C73.84 62.2 70.73 64.88 67.13 66.98C65.55 67.9 63.92 68.7 62.22 69.39C61.77 69.57 61.52 69.47 61.34 69.04C60.93 68.07 60.17 67.3 59.84 66.29C59.66 65.73 59.5 65.17 59.53 64.57C59.56 64 59.74 63.81 60.31 63.94C60.96 64.08 61.61 64.04 62.25 64.03C63.11 64 63.44 63.62 63.44 62.76C63.44 61.82 63.07 60.96 62.81 60.08C62.09 57.61 62.11 55.16 62.73 52.66C63.18 50.84 63.82 49.19 65.25 47.93C66.1 47.18 67.08 46.61 68 45.95C70.34 44.28 72.42 42.32 73.91 39.85C75.81 36.7 75.31 33.21 72.51 30.62C72.04 30.18 71.82 30.2 71.37 30.86C70.53 32.12 69.35 33.04 68.21 33.99C67.07 34.94 65.67 34.86 64.31 34.81C63.94 34.8 64.04 34.49 64.09 34.28C64.22 33.71 64.43 33.15 64.71 32.64C65.87 30.55 66.57 28.31 67.04 25.97C67.63 23.01 66.88 20.46 64.82 18.28C64.02 17.44 62.97 16.98 61.91 16.59C61.29 16.37 60.77 16.7 60.32 17.11C58.47 18.78 56.64 20.47 54.78 22.13C53.48 23.29 52.15 24.4 50.69 25.36C50.25 25.65 49.93 25.75 49.54 25.22C49 24.51 48.16 24.73 47.43 24.79C44.51 25.03 42.19 26.47 40.12 28.46C38.04 30.47 36.03 32.55 34.07 34.68C32.61 36.26 30.84 37.39 29 38.46C27.05 39.6 25 40.37 22.75 40.59C20.77 40.78 18.78 40.91 16.79 40.86C16.21 40.85 16.05 40.94 16.16 41.59C16.46 43.32 17.37 44.69 18.47 45.98C18.93 46.52 19.4 47.06 19.88 47.59C20.14 47.88 20.12 48.14 19.9 48.43C19.22 49.34 18.17 49.66 17.19 50.05C16.9 50.17 16.81 49.85 16.73 49.64C16 47.76 15.44 45.84 15.05 43.87C14.47 41 14.29 38.1 14.44 35.19C14.58 32.49 15.05 29.84 15.83 27.25C17.02 23.25 18.87 19.59 21.39 16.27C24.14 12.65 27.47 9.65001 31.39 7.32001C34.95 5.20001 38.77 3.75001 42.84 3.00001C45.01 2.58001 47.17 2.31 48.79 2.4Z" fill="#3F3F3F"/>
<path d="M52.86 63.29C52.38 63.16 52.3 63.44 52.3 63.82C52.28 65.64 52.24 67.4701 51.99 69.2801C51.61 72.0401 51.06 74.76 49.59 77.19C49.22 77.81 49.19 77.82 48.83 77.17C48.5 76.57 48.19 75.9501 47.88 75.3401C47.37 74.3601 46.53 73.83 45.48 73.61C45.03 73.52 44.88 73.61 44.99 74.11C45.3 75.49 45.68 76.8501 45.85 78.2601C46.14 80.6501 45.78 82.96 45.13 85.25C44.82 86.35 44.45 87.44 43.87 88.43C43.39 89.25 43.33 89.2701 42.56 88.7601C40.42 87.3401 38.7 85.4801 37.15 83.4601C34.98 80.6401 33.19 77.6201 32.3 74.1401C32.15 73.5401 31.95 72.94 32.01 72.3C32.29 72.37 32.3 72.6201 32.38 72.8301C32.54 73.2401 32.66 73.67 32.87 74.05C33.99 76.13 36.4 76.4701 38.26 76.2801C38.77 76.2301 38.64 75.91 38.53 75.6C39.52 75.82 40.39 76.34 41.34 76.66C41.94 76.86 42.53 77.07 43.22 77.07C43.06 76.71 42.81 76.52 42.59 76.3C41.6 75.31 40.53 74.38 39.61 73.32C36.95 70.26 35.64 66.7201 35.95 62.6401C35.98 62.2601 35.84 62.09 35.52 62C35.48 61.8 35.54 61.6201 35.64 61.4601C35.75 61.2901 35.83 61.0201 36.05 61.0301C36.3 61.0401 36.33 61.3501 36.34 61.5301C36.39 62.0701 36.4 62.62 36.38 63.16C36.36 63.77 36.59 64.24 37 64.67C37.82 65.53 38.85 66.03 39.91 66.47C40.3 66.63 40.79 66.84 41.18 66.38C43.14 67.1 45.08 67.8801 47.16 68.2101C48.36 68.4001 49.95 68.3 50.71 67.91C50.05 67.59 49.35 67.4601 48.67 67.2801C47.42 66.9401 46.15 66.6601 45 66.0201C44.26 65.6101 43.64 65.09 43.23 64.17C44.41 64.37 45.43 64.79 46.52 64.86C47.62 64.94 48.71 64.93 49.79 64.19C49.58 64.16 49.51 64.1401 49.43 64.1401C46.75 63.8801 44.31 62.9701 42.11 61.4001C40.26 60.0801 38.82 58.36 37.48 56.55C37.23 56.21 36.98 55.85 36.59 55.58C36.59 56.58 36.59 57.5201 36.59 58.4501C35.83 57.7501 35.75 56 36.49 55.16C36.87 54.74 37.07 54.3101 37.01 53.7601C37.71 54.2801 38.2 54.99 38.79 55.62C40.2 57.14 41.85 58.2101 43.95 58.5101C44.72 58.6201 45.49 58.69 46.27 58.69C46.65 58.69 46.66 58.55 46.49 58.28C46.24 57.89 45.8 57.81 45.41 57.69C43.69 57.14 42.24 56.2101 41.01 54.8901C39.56 53.3301 38.84 51.48 38.66 49.4C38.53 47.88 38.55 47.87 37.06 48.28C35.32 48.76 33.58 49.3 31.76 49.22C27.67 49.04 23.99 47.68 20.74 45.16C20.21 44.75 19.77 44.24 19.5 43.6C19.35 43.24 19.35 43.0501 19.84 43.0101C21.62 42.9001 23.39 42.75 25.14 42.37C30.23 41.25 34.43 38.66 37.76 34.65C38.43 33.84 39.12 33.05 39.82 32.27C40.1 31.96 40.39 31.65 40.81 31.52C40.77 31.92 40.91 32.08 41.31 31.91C41.89 31.67 42.48 31.49 43.12 31.43C43.49 31.39 43.82 31.2 43.9 30.8C44.04 30.1 44.42 30.2501 44.84 30.5101C44.45 30.9101 44.48 31.35 44.61 31.86C44.85 32.76 44.82 33.67 44.47 34.56C44.3 34.98 44.21 35.44 44.08 35.87C43.98 36.21 44.05 36.44 44.44 36.49C44.43 36.81 44.25 37.04 44.03 37.24C42.53 38.66 42.14 40.52 41.94 42.46C41.92 42.63 41.84 42.8801 42.03 42.9801C42.21 43.0701 42.37 42.88 42.53 42.78C43.49 42.17 44.28 41.36 45.19 40.69C46.41 39.79 47.77 39.13 49.17 38.57C51.52 37.63 53.89 36.74 56.49 36.88C56.85 36.9 57.34 36.88 57.45 37.18C57.56 37.49 57.08 37.64 56.83 37.82C55.56 38.71 54.2 39.47 53.03 40.49C49.19 43.85 47.51 48.19 47.36 53.21C47.35 53.74 47.43 54.27 47.75 54.78C48.03 54.35 48.11 53.92 48.24 53.5C48.62 52.28 48.98 51.05 49.72 49.99C50.4 49.01 51.15 48.0901 51.91 47.1701C52.1 46.9401 52.21 46.53 52.65 46.58C52.43 47.39 51.93 48.08 51.6 48.84C50.53 51.26 50.62 53.67 51.66 56.06C51.88 56.57 52.17 57.04 52.67 57.46C52.67 56.71 52.64 56.07 52.68 55.43C52.72 54.86 52.66 54.2601 53.04 53.7601C53.22 53.8701 53.16 54.06 53.17 54.22C53.22 55.47 53.05 56.7301 53.27 57.9801C53.31 58.2301 53.19 58.3 52.93 58.24C52.47 58.14 52.1 57.9301 51.84 57.5101C51.78 59.1301 51.69 60.73 52.63 62.17C52.79 62.53 52.92 62.9 52.86 63.29ZM40.09 44.25C40.3 43.99 40.36 43.68 40.41 43.38C40.73 41.43 40.48 39.5401 39.8 37.7001C39.4 36.6101 39.14 36.5601 38.41 37.4501C36.79 39.4001 34.77 40.86 32.57 42.05C30.55 43.15 28.41 43.91 26.08 44.03C24.68 44.1 23.28 44.1801 21.87 44.2601C21.73 44.2701 21.53 44.26 21.47 44.35C21.35 44.52 21.55 44.65 21.65 44.77C22.09 45.32 22.66 45.7101 23.29 46.0101C25.79 47.2001 28.39 47.37 31.06 46.69C32.74 46.26 34.17 45.4101 35.48 44.1401C35.6 45.4101 34.87 46.41 34.74 47.66C36.46 46.52 37.94 45.32 38.77 43.49C38.85 43.32 38.84 42.99 39.1 43.03C39.36 43.07 39.59 43.26 39.66 43.56C39.72 43.82 39.82 44.07 40.09 44.25Z" fill="#B4B4B4"/>
<path d="M52.86 63.29C52.93 62.89 52.8 62.53 52.59 62.22C51.65 60.78 51.74 59.19 51.8 57.56C52.06 57.99 52.43 58.19 52.89 58.29C53.15 58.35 53.27 58.28 53.23 58.03C53.01 56.78 53.18 55.52 53.13 54.27C53.12 54.11 53.18 53.93 53 53.81C53.05 52.86 52.83 51.85 53.61 50.96C53.96 53.05 53.99 55.22 56.24 56.47C56.22 56.14 56.2 55.98 56.2 55.81C56.13 54.2 55.75 52.61 55.74 51C55.72 48.14 56.06 45.36 57.76 42.93C57.98 42.62 58.18 42.28 58.27 41.82C56.87 42.48 55.77 43.44 54.73 44.47C54.02 45.18 53.41 45.99 52.62 46.62C52.18 46.57 52.07 46.98 51.88 47.21C51.12 48.13 50.37 49.06 49.69 50.03C48.95 51.09 48.59 52.32 48.21 53.54C48.08 53.95 48 54.39 47.72 54.82C47.4 54.3 47.32 53.77 47.33 53.25C47.47 48.24 49.16 43.9 53 40.53C54.17 39.51 55.53 38.75 56.8 37.86C57.05 37.68 57.54 37.52 57.42 37.22C57.31 36.92 56.82 36.94 56.46 36.92C53.85 36.77 51.49 37.67 49.14 38.61C47.74 39.17 46.38 39.83 45.16 40.73C44.25 41.4 43.46 42.22 42.5 42.82C42.34 42.92 42.19 43.11 42 43.02C41.81 42.92 41.89 42.67 41.91 42.5C42.12 40.56 42.5 38.7 44 37.28C44.22 37.08 44.4 36.85 44.41 36.53C45.28 35.19 46.34 34.07 47.96 33.66C48.35 33.7 48.69 33.5 49.04 33.37C50.2 32.93 51.37 32.94 52.52 33.37C53.99 33.93 53.95 34.22 54.39 32.44C55.18 29.24 56.97 26.78 59.71 24.98C60.22 24.64 60.82 24.4 61.19 23.87C62 23.62 62.82 23.5 63.67 23.7C64.42 23.88 64.8 24.35 64.84 25.13C64.89 25.97 64.64 26.74 64.38 27.52C63.92 28.94 63.23 30.25 62.59 31.6C61.97 32.92 61.5 34.27 61.63 35.77C61.67 36.21 61.85 36.47 62.2 36.66C63.93 37.6 65.71 37.7 67.53 36.98C68.84 36.47 69.97 35.69 70.88 34.61C71.09 34.36 71.37 33.97 71.66 34.04C72 34.13 72 34.62 72.05 34.96C72.24 36.1 71.85 37.12 71.29 38.07C69.44 41.2 66.74 43.22 63.21 44.1C62.33 44.32 61.44 44.44 60.54 44.49C60.41 44.5 60.22 44.41 60.16 44.61C60.11 44.8 60.14 44.99 60.31 45.12C60.58 45.32 60.83 45.57 61.12 45.71C61.71 46 61.75 46.36 61.44 46.91C60.75 48.16 60.2 49.46 59.89 50.87C59.36 53.25 59.59 55.62 59.94 58C60.06 58.83 60.12 59.67 60.23 60.5C60.27 60.84 60.18 60.99 59.8 60.99C59.06 61 58.45 60.81 57.96 60.22C57.7 59.9 57.36 59.44 56.96 59.6C56.66 59.72 56.85 60.28 56.85 60.64C56.85 61.54 56.87 62.4401 56.96 63.3401C57.09 64.5201 57.4 65.64 57.97 66.68C58.39 67.45 58.77 68.24 59.02 69.08C58.83 69.24 58.68 69.08 58.55 69.02C56.47 68.15 54.76 66.81 53.49 64.94C53.18 64.46 52.91 63.92 52.86 63.29Z" fill="#E9EAE4"/>
<path d="M23.54 68.18C23.15 67.68 23.06 67.08 23.04 66.47C23.01 65.8 23.01 65.13 23.04 64.46C23.05 64.1 22.93 63.98 22.58 64.01C21.89 64.07 21.2 64.1 20.51 64.14C16.19 64.4 12.38 63 8.91001 60.54C7.90001 59.83 6.88 59.12 6.12 58.13C5.97 57.94 5.72 57.73 5.84 57.48C5.95 57.26 6.26001 57.37 6.48001 57.35C8.60001 57.16 10.75 57.3 12.86 56.85C14.01 56.6 15.08 56.15 16.1 55.58C16.5 55.36 16.43 55.21 16.08 55.06C15.8 54.93 15.51 54.81 15.22 54.7C14.95 54.6 14.66 54.53 14.4 54.4C14.08 54.24 13.65 54.02 13.68 53.69C13.7 53.35 14.2 53.39 14.5 53.31C15.28 53.1 16.07 52.89 16.86 52.7C18.29 52.35 19.66 51.83 20.9 51.03C21.39 50.71 21.85 50.69 22.38 50.92C23.63 51.45 24.89 51.97 26.24 52.2C28.27 52.55 30.29 52.39 32.32 52.13C33.44 51.99 34.57 51.87 35.68 51.68C36.35 51.57 36.54 51.86 36.5 52.45C35.91 52.21 35.55 52.46 35.19 52.93C34.88 53.33 34.56 53.77 34.05 53.96C33.91 53.54 33.69 53.69 33.43 53.84C31.96 54.74 30.36 55.13 28.64 55.11C26.6 55.09 24.74 54.42 22.91 53.63C22.52 53.46 22.15 53.23 21.66 53.23C22.29 54.37 23.14 55.23 24.1 55.98C26.88 58.15 29.22 58.17 32.05 56.06C32.4 55.8 32.69 55.46 33.14 55.34C33.19 55.62 33.01 55.81 32.89 56.03C31.83 57.79 31.29 59.7 31.26 61.75C31.25 62.38 31.25 63.01 31.26 63.64C31.26 64.01 31.12 64.08 30.8 63.93C30.36 63.73 30.04 63.43 29.8 63.01C29.39 62.26 29.28 61.43 29.04 60.63C28.99 60.48 29.09 60.18 28.82 60.18C28.62 60.18 28.45 60.33 28.33 60.53C28.04 61.04 27.7 61.52 27.48 62.06C26.6 64.18 26.43 66.38 26.7 68.64C26.76 69.16 26.97 69.69 26.79 70.3C25.86 69.61 25.03 68.88 24.29 68.06C23.89 67.68 23.7 67.68 23.54 68.18Z" fill="#B4B4B4"/>
<path d="M23.54 68.18C23.7 67.69 23.9 67.69 24.25 68.07C24.99 68.89 25.82 69.62 26.75 70.31C26.93 69.7 26.72 69.16 26.66 68.65C26.39 66.39 26.56 64.19 27.44 62.07C27.67 61.52 28 61.04 28.29 60.54C28.41 60.34 28.57 60.19 28.78 60.19C29.05 60.19 28.95 60.49 29 60.64C29.24 61.44 29.34 62.28 29.76 63.02C29.99 63.44 30.32 63.74 30.76 63.94C31.09 64.09 31.23 64.02 31.22 63.65C31.21 63.02 31.21 62.39 31.22 61.76C31.26 59.71 31.8 57.8 32.85 56.04C32.98 55.83 33.15 55.63 33.1 55.35C33.47 54.93 33.84 54.51 34.01 53.96C34.53 53.77 34.84 53.32 35.15 52.93C35.52 52.46 35.88 52.21 36.46 52.45C36.72 52.87 36.84 53.35 37 53.81C37.05 54.36 36.85 54.78 36.48 55.21C35.73 56.04 35.82 57.8 36.58 58.5C36.86 60.95 37.64 63.17 39.48 64.91C40.03 65.43 40.6 65.92 41.16 66.42C40.77 66.88 40.28 66.67 39.89 66.51C38.83 66.07 37.8 65.57 36.98 64.71C36.57 64.28 36.34 63.8 36.36 63.2C36.38 62.66 36.37 62.11 36.32 61.57C36.3 61.39 36.28 61.09 36.03 61.07C35.81 61.06 35.73 61.33 35.62 61.5C35.52 61.66 35.46 61.84 35.5 62.04C35.1 63.18 34.67 64.31 34.3 65.46C33.08 69.27 34.19 72.56 37.45 74.86C37.81 75.11 38.15 75.39 38.5 75.65C38.62 75.96 38.75 76.27 38.23 76.33C36.37 76.53 33.96 76.18 32.84 74.1C32.63 73.72 32.51 73.29 32.35 72.88C32.27 72.67 32.26 72.42 31.98 72.35C31.9 71.79 31.68 71.27 31.38 70.72C30.46 72.51 29.47 74.21 29.42 76.26C29.41 76.72 29.31 77.18 29.32 77.64C29.33 78.17 29.09 78.07 28.79 77.9C28.18 77.55 27.72 77.03 27.3 76.48C25.61 74.26 24.27 71.86 23.57 69.13C23.51 68.79 23.57 68.48 23.54 68.18Z" fill="#E9EAE4"/>
<path d="M61.2 23.89C60.83 24.42 60.23 24.66 59.72 25C56.98 26.8 55.19 29.26 54.4 32.46C53.96 34.24 54 33.95 52.53 33.39C51.38 32.96 50.21 32.95 49.05 33.39C48.7 33.52 48.37 33.72 47.97 33.68C48.4 32.93 49.15 32.7 49.91 32.57C51.02 32.39 51.9 31.88 52.62 31.01C53.28 30.2 54.01 29.44 54.69 28.64C55 28.28 55.27 27.88 55.48 27.35C53.98 27.54 52.84 28.91 51.1 28.42C51.7 27.93 52.19 27.52 52.69 27.12C54.69 25.49 56.7 23.87 58.68 22.22C59.04 21.92 59.19 21.98 59.31 22.39C59.33 22.45 59.37 22.5 59.39 22.56C59.69 23.41 60.11 24.1 61.2 23.89Z" fill="#B4B4B4"/>
<path d="M44.82 30.56C44.4 30.3 44.02 30.16 43.88 30.85C43.8 31.25 43.47 31.45 43.1 31.48C42.47 31.54 41.87 31.73 41.29 31.96C40.88 32.13 40.75 31.96 40.79 31.57C42.24 29.79 44.06 28.52 46.16 27.63C46.39 27.53 46.64 27.48 46.89 27.43C47.36 27.34 47.85 27.33 48.14 27.78C48.43 28.22 48.25 28.67 47.99 29.07C47.38 30.01 46.45 30.38 45.38 30.49C45.2 30.52 45.01 30.54 44.82 30.56Z" fill="#E9EAE4"/>
<path d="M40.09 44.25C39.82 44.07 39.72 43.83 39.66 43.56C39.59 43.26 39.36 43.06 39.1 43.03C38.84 42.99 38.85 43.32 38.77 43.49C37.94 45.32 36.46 46.52 34.74 47.66C34.87 46.41 35.6 45.41 35.48 44.14C34.18 45.41 32.74 46.26 31.06 46.69C28.39 47.37 25.79 47.21 23.29 46.01C22.66 45.71 22.09 45.32 21.65 44.77C21.55 44.65 21.36 44.52 21.47 44.35C21.53 44.27 21.73 44.27 21.87 44.26C23.27 44.18 24.67 44.1 26.08 44.03C28.41 43.91 30.55 43.15 32.57 42.05C34.77 40.85 36.79 39.4 38.41 37.45C39.15 36.56 39.4 36.61 39.8 37.7C40.48 39.54 40.73 41.43 40.41 43.38C40.36 43.68 40.3 43.99 40.09 44.25Z" fill="#070708"/>
<path d="M41.17 66.41C40.61 65.91 40.04 65.42 39.49 64.9C37.65 63.16 36.86 60.94 36.59 58.49C36.59 57.56 36.59 56.62 36.59 55.62C36.98 55.89 37.23 56.24 37.48 56.59C38.82 58.4 40.25 60.12 42.11 61.44C44.31 63.01 46.75 63.91 49.43 64.18C49.5 64.19 49.58 64.2 49.79 64.23C48.71 64.98 47.62 64.98 46.52 64.9C45.44 64.82 44.42 64.41 43.23 64.21C43.64 65.12 44.26 65.65 45 66.06C46.15 66.69 47.42 66.98 48.67 67.32C49.35 67.5 50.05 67.64 50.71 67.95C49.94 68.34 48.36 68.44 47.16 68.25C45.06 67.91 43.12 67.13 41.17 66.41Z" fill="#070708"/>
<path d="M52.62 46.64C53.41 46.01 54.02 45.2 54.73 44.49C55.77 43.46 56.86 42.5 58.27 41.84C58.18 42.3 57.98 42.64 57.76 42.95C56.06 45.39 55.72 48.16 55.74 51.02C55.75 52.64 56.13 54.22 56.2 55.83C56.21 56 56.22 56.16 56.24 56.49C54 55.24 53.96 53.07 53.61 50.98C52.84 51.86 53.05 52.87 53 53.83C52.62 54.33 52.68 54.93 52.64 55.5C52.6 56.14 52.63 56.78 52.63 57.53C52.13 57.1 51.83 56.63 51.62 56.13C50.58 53.73 50.49 51.32 51.56 48.91C51.9 48.13 52.4 47.45 52.62 46.64Z" fill="#070708"/>
<path d="M38.51 75.63C38.16 75.37 37.81 75.09 37.46 74.84C34.21 72.54 33.09 69.25 34.31 65.44C34.68 64.29 35.11 63.16 35.51 62.02C35.83 62.11 35.97 62.28 35.94 62.66C35.63 66.74 36.93 70.27 39.6 73.34C40.52 74.4 41.59 75.33 42.58 76.32C42.8 76.54 43.05 76.73 43.21 77.09C42.52 77.1 41.93 76.88 41.33 76.68C40.37 76.37 39.5 75.85 38.51 75.63Z" fill="#070708"/>
<path d="M34.02 53.95C33.85 54.5 33.47 54.92 33.11 55.34C32.66 55.45 32.37 55.8 32.02 56.06C29.19 58.17 26.85 58.15 24.07 55.98C23.11 55.23 22.26 54.36 21.63 53.23C22.13 53.24 22.5 53.47 22.88 53.63C24.72 54.42 26.58 55.09 28.61 55.11C30.33 55.13 31.93 54.75 33.4 53.84C33.66 53.68 33.89 53.54 34.02 53.95Z" fill="#070708"/>
</svg>
