<?xml version="1.0" encoding="UTF-8" standalone="no"?>
<svg
   width="29.041534"
   zoomAndPan="magnify"
   viewBox="0 0 21.781151 14.24208"
   height="18.989441"
   preserveAspectRatio="xMidYMid"
   version="1.0"
   id="svg2585"
   sodipodi:docname="mail-logo.svg"
   xmlns:inkscape="http://www.inkscape.org/namespaces/inkscape"
   xmlns:sodipodi="http://sodipodi.sourceforge.net/DTD/sodipodi-0.dtd"
   xmlns="http://www.w3.org/2000/svg"
   xmlns:svg="http://www.w3.org/2000/svg">
  <sodipodi:namedview
     id="namedview2585"
     pagecolor="#ffffff"
     bordercolor="#000000"
     borderopacity="0.25"
     inkscape:showpageshadow="2"
     inkscape:pageopacity="0.0"
     inkscape:pagecheckerboard="0"
     inkscape:deskcolor="#d1d1d1">
    <inkscape:page
       x="0"
       y="0"
       width="21.781151"
       height="14.24208"
       id="page1"
       margin="0"
       bleed="0" />
  </sodipodi:namedview>
  <defs
     id="defs601">
    <clipPath
       id="69daafca05">
      <path
         d="M 738.09375,736.01562 H 760 V 750.25 h -21.90625 z m 0,0"
         clip-rule="nonzero"
         id="path582" />
    </clipPath>
  </defs>
  <g
     clip-path="url(#69daafca05)"
     id="g1734"
     inkscape:export-filename="..\..\UndoodWeb\public\mail-logo.svg"
     inkscape:export-xdpi="96"
     inkscape:export-ydpi="96"
     transform="translate(-738.08599,-736.05469)">
    <path
       fill="#024f7b"
       d="m 758.62891,736.05469 h -19.30469 c -0.16406,0 -0.32031,0.0312 -0.47266,0.0937 -0.15234,0.0625 -0.28515,0.15234 -0.40234,0.26953 -0.11719,0.11719 -0.20703,0.25 -0.26953,0.40234 -0.0625,0.14844 -0.0937,0.3086 -0.0937,0.47266 v 11.76562 c 0,0.16407 0.0312,0.32422 0.0937,0.47266 0.0625,0.15234 0.15234,0.28516 0.26953,0.40234 0.11719,0.11719 0.25,0.20703 0.40234,0.26953 0.15235,0.0625 0.3086,0.0937 0.47266,0.0937 h 19.30469 c 0.16406,0 0.32421,-0.0312 0.47265,-0.0937 0.15235,-0.0625 0.28516,-0.15234 0.40235,-0.26953 0.11718,-0.11718 0.20703,-0.25 0.26953,-0.40234 0.0625,-0.14844 0.0937,-0.30859 0.0937,-0.47266 v -11.76562 c 0,-0.16406 -0.0312,-0.32422 -0.0937,-0.47266 -0.0625,-0.15234 -0.15235,-0.28515 -0.26953,-0.40234 -0.11719,-0.11719 -0.25,-0.20703 -0.40235,-0.26953 -0.14844,-0.0625 -0.30859,-0.0937 -0.47265,-0.0937 z m -6.23047,7.12109 3.38314,-3.01566 3.41373,-3.04293 c 0.0195,0.0547 0.0312,0.11328 0.0312,0.17578 v 11.76562 c 0,0.0625 -0.0117,0.11719 -0.0312,0.17578 z m 6.23047,-6.48047 c 0.0234,0 0.0469,0.004 0.0664,0.008 l -9.32422,8.3125 c -0.11328,0.10157 -0.24609,0.15235 -0.39453,0.15235 -0.15234,0 -0.28515,-0.0508 -0.39844,-0.15235 l -9.32031,-8.3125 c 0.0195,-0.004 0.043,-0.008 0.0664,-0.008 z m -19.8711,12.53906 c -0.0195,-0.0586 -0.0273,-0.11328 -0.0312,-0.17578 v -11.76562 c 0.004,-0.0625 0.0117,-0.1211 0.0312,-0.17578 l 6.79688,6.05859 z m 0.56641,0.42188 c -0.0234,0 -0.0469,-0.004 -0.0664,-0.008 l 6.77735,-6.04297 2.11718,1.88672 c 0.23438,0.21093 0.51172,0.3164 0.82422,0.3164 0.31641,0 0.58985,-0.10547 0.82422,-0.3164 l 2.11719,-1.88672 6.77734,6.04297 c -0.0195,0.004 -0.043,0.008 -0.0664,0.008 z"
       fill-opacity="1"
       fill-rule="nonzero"
       id="path1"
       inkscape:export-filename="contact-icon.svg"
       inkscape:export-xdpi="96"
       inkscape:export-ydpi="96"
       sodipodi:nodetypes="sscscsscccsscscsscccscccssccsccsccssccccccscccscccss"
       style="opacity:1;fill:#024f7b;fill-opacity:1;stroke-width:0.99975;stroke-dasharray:none" />
  </g>
</svg>
