<?xml version="1.0" encoding="UTF-8" standalone="no"?>
<svg
   width="51.839874"
   zoomAndPan="magnify"
   viewBox="0 0 38.879906 34.046882"
   height="45.395844"
   preserveAspectRatio="xMidYMid"
   version="1.0"
   id="svg2293"
   sodipodi:docname="programs.svg"
   xmlns:inkscape="http://www.inkscape.org/namespaces/inkscape"
   xmlns:sodipodi="http://sodipodi.sourceforge.net/DTD/sodipodi-0.dtd"
   xmlns="http://www.w3.org/2000/svg"
   xmlns:svg="http://www.w3.org/2000/svg">
  <sodipodi:namedview
     id="namedview2293"
     pagecolor="#ffffff"
     bordercolor="#000000"
     borderopacity="0.25"
     inkscape:showpageshadow="2"
     inkscape:pageopacity="0.0"
     inkscape:pagecheckerboard="0"
     inkscape:deskcolor="#d1d1d1"
     inkscape:export-bgcolor="#ffffff00">
    <inkscape:page
       x="0"
       y="0"
       width="38.879906"
       height="34.046883"
       id="page2"
       margin="0"
       bleed="0" />
  </sodipodi:namedview>
  <defs
     id="defs30">
    <clipPath
       id="1199fe140b">
      <path
         d="m 276,154.73828 h 39.05078 v 34.04688 H 276 Z m 0,0"
         clip-rule="nonzero"
         id="path17" />
    </clipPath>
  </defs>
  <g
     clip-path="url(#1199fe140b)"
     id="g62"
     transform="translate(-276.17087,-154.73828)">
    <path
       fill="#024f7b"
       d="m 314.97656,158.64453 c -0.35156,-0.34766 -0.88672,-0.38281 -1.27734,-0.0859 -3.34766,2.57032 -6.53906,5.22266 -9.28906,7.59766 -1.03907,-2.93359 -2.86719,-5.54688 -5.35157,-7.55078 -3.13672,-2.53125 -7.03125,-3.86719 -11.26953,-3.86719 -3.11719,0 -5.89062,0.84766 -8.01172,2.44531 -1.79297,1.35157 -3.05468,3.21875 -3.46484,5.1211 -0.48047,2.24609 0.28125,4.12109 1.98828,4.89062 2.83594,1.27735 3.24609,3.15625 3.23438,4.16797 -0.004,0.35938 -0.004,0.72656 0,1.08984 0.0117,1.00782 -0.39844,2.89063 -3.23438,4.16797 -1.70703,0.76563 -2.46875,2.64063 -1.98828,4.88672 0.41016,1.90625 1.67187,3.76953 3.46484,5.1211 2.1211,1.60156 4.89453,2.44531 8.01172,2.44531 4.23828,0 8.13281,-1.33594 11.26953,-3.86719 4.02735,-3.25 6.33594,-8.09766 6.33594,-13.30078 0,-0.10938 0,-0.22266 -0.004,-0.33203 2.83204,-3.19531 6.32032,-7.29297 9.66797,-11.65625 0.30078,-0.39063 0.26563,-0.92578 -0.082,-1.27344 z m -16.54687,25.78516 c -2.95703,2.38281 -6.63672,3.64453 -10.64063,3.64453 -2.90234,0 -5.46094,-0.77735 -7.41015,-2.24219 -1.60547,-1.21094 -2.73047,-2.86328 -3.08985,-4.53125 -0.375,-1.76172 0.16797,-3.20312 1.42188,-3.76953 1.47656,-0.66406 2.54687,-1.56641 3.18359,-2.67578 0.53906,-0.94531 0.64844,-1.83203 0.64063,-2.41406 -0.004,-0.35547 -0.004,-0.71485 0,-1.07032 0.008,-0.57812 -0.10157,-1.46875 -0.64063,-2.41015 -0.63672,-1.11328 -1.70703,-2.01563 -3.18359,-2.67969 -1.25391,-0.5625 -1.79688,-2.00781 -1.42188,-3.76563 0.35938,-1.67187 1.48438,-3.32421 3.08985,-4.53125 1.94921,-1.46875 4.50781,-2.24609 7.41015,-2.24609 4.00391,0 7.6836,1.26172 10.64063,3.64453 2.44531,1.97266 4.21484,4.57031 5.16406,7.48047 -4.67969,4.08203 -7.89063,7.18359 -8.03906,7.32813 0,0 -0.004,0.004 -0.004,0.004 -0.004,0.004 -0.004,0.004 -0.004,0.004 l -1.14062,1.14062 c -0.30859,0.0469 -0.92188,0.1836 -1.58203,0.56641 -0.84375,0.48437 -1.92578,1.48047 -2.3125,3.44922 -0.5,2.55078 -0.8711,3.49219 -1.71875,4.39062 -0.33985,0.35938 -0.42578,0.87891 -0.21875,1.32813 0.19922,0.42578 0.61719,0.6914 1.08203,0.6914 0.0234,0 0.043,0 0.0664,-0.004 1.27734,-0.0703 3.14843,-0.35938 4.82812,-1.33594 1.93359,-1.11719 3.17969,-2.86719 3.70703,-5.19531 l 1.16406,-1.16016 c 0.004,-0.004 0.008,-0.008 0.0117,-0.0117 0.10547,-0.10937 1.04297,-1.08203 2.51172,-2.67187 0.0352,-0.0391 0.0703,-0.0781 0.10547,-0.11328 0.36719,-0.39844 0.76563,-0.83203 1.1875,-1.30078 0.0703,-0.0781 0.14453,-0.15625 0.21484,-0.23438 0.29688,-0.32812 0.60547,-0.66797 0.92188,-1.02344 -0.22656,4.58985 -2.36328,8.82422 -5.94531,11.71485 z m -3.08594,-8.61328 0.55469,-0.55469 2.46093,2.45703 -0.55468,0.55469 z m 1.91016,3.32031 c -0.48438,1.98437 -1.5586,3.47265 -3.20313,4.42578 -1.51172,0.875 -3.21875,1.13672 -4.38281,1.20312 -0.11328,0.004 -0.16406,-0.0664 -0.1836,-0.11328 -0.0234,-0.043 -0.0469,-0.13281 0.0352,-0.21875 1.09766,-1.16015 1.49609,-2.44531 1.97266,-4.88672 0.49609,-2.53515 2.33593,-3.08593 2.96875,-3.20312 z m 8.05468,-8.97656 c -0.3164,0.35937 -0.6289,0.71093 -0.92968,1.04687 -2.56641,2.89063 -4.55079,4.98828 -5.32032,5.79688 l -2.44531,-2.44141 c 0.94141,-0.90234 3.63672,-3.44531 7.28906,-6.64063 0.27344,-0.23828 0.55469,-0.48437 0.83985,-0.73046 2.7539,-2.38672 5.98047,-5.07813 9.375,-7.69141 -3.02735,3.9375 -6.16407,7.64844 -8.8086,10.66016 z m 0,0"
       fill-opacity="1"
       fill-rule="nonzero"
       id="path61"
       inkscape:export-filename="..\..\UndoodWeb\public\pallete.svg"
       inkscape:export-xdpi="97.650002"
       inkscape:export-ydpi="97.650002" />
  </g>
  <path
     fill="#024f7b"
     d="m 10.251005,7.8906266 c 0,-1.73438 -1.4101496,-3.14454 -3.1445296,-3.14454 -1.73437,0 -3.14453,1.41016 -3.14453,3.14454 0,1.73437 1.41016,3.1445294 3.14453,3.1445294 1.73438,0 3.1445296,-1.4101594 3.1445296,-3.1445294 z m -5.2890596,0 c 0,-1.1836 0.96094,-2.14454 2.14453,-2.14454 1.1836,0 2.14453,0.96094 2.14453,2.14454 0,1.18359 -0.96093,2.1445294 -2.14453,2.1445294 -1.18359,0 -2.14453,-0.9609394 -2.14453,-2.1445294 z m 0,0"
     fill-opacity="1"
     fill-rule="nonzero"
     id="path62" />
  <path
     fill="#024f7b"
     d="m 15.208045,9.7734366 c 1.51953,0 2.75781,-1.23828 2.75781,-2.75781 0,-1.52344 -1.23828,-2.75782 -2.75781,-2.75782 -1.52344,0 -2.76172,1.23438 -2.76172,2.75782 0,1.51953 1.23828,2.75781 2.76172,2.75781 z m 0,-4.51563 c 0.96875,0 1.75781,0.78907 1.75781,1.75782 0,0.96875 -0.78906,1.75781 -1.75781,1.75781 -0.97266,0 -1.76172,-0.78906 -1.76172,-1.75781 0,-0.96875 0.78906,-1.75782 1.76172,-1.75782 z m 0,0"
     fill-opacity="1"
     fill-rule="nonzero"
     id="path63" />
  <path
     fill="#024f7b"
     d="m 21.891635,13.046876 c 1.29687,0 2.35156,-1.05469 2.35156,-2.35157 0,-1.2929694 -1.05469,-2.3476494 -2.35156,-2.3476494 -1.29297,0 -2.34766,1.05468 -2.34766,2.3476494 0,1.29688 1.05469,2.35157 2.34766,2.35157 z m 0,-3.6992194 c 0.74609,0 1.35156,0.60547 1.35156,1.3476494 0,0.7461 -0.60547,1.35157 -1.35156,1.35157 -0.74219,0 -1.34766,-0.60547 -1.34766,-1.35157 0,-0.7421794 0.60547,-1.3476494 1.34766,-1.3476494 z m 0,0"
     fill-opacity="1"
     fill-rule="nonzero"
     id="path64" />
  <path
     fill="#024f7b"
     d="m 7.9892954,23.042966 c -1.51954,0 -2.75782,1.23828 -2.75782,2.75781 0,1.52344 1.23828,2.75781 2.75782,2.75781 1.51953,0 2.7578096,-1.23437 2.7578096,-2.75781 0,-1.51953 -1.2382796,-2.75781 -2.7578096,-2.75781 z m 0,4.51562 c -0.96875,0 -1.75782,-0.78906 -1.75782,-1.75781 0,-0.96875 0.78907,-1.75781 1.75782,-1.75781 0.96875,0 1.75781,0.78906 1.75781,1.75781 0,0.96875 -0.78906,1.75781 -1.75781,1.75781 z m 0,0"
     fill-opacity="1"
     fill-rule="nonzero"
     id="path65" />
</svg>
